<svg width="40" height="32" viewBox="0 0 40 32" fill="none" xmlns="http://www.w3.org/2000/svg">
<path d="M33.8618 3.38436C31.3118 2.21436 28.5785 1.35269 25.7201 0.859361C25.6685 0.849361 25.6168 0.874361 25.5885 0.921028C25.2368 1.54603 24.8468 2.36269 24.5751 3.00269C21.5001 2.54269 18.4418 2.54269 15.4301 3.00269C15.1585 2.34769 14.7535 1.54603 14.4018 0.921028C14.3735 0.874361 14.3218 0.851028 14.2701 0.859361C11.4135 1.35103 8.68015 2.21269 6.12848 3.38436C6.10681 3.39269 6.08681 3.40936 6.07515 3.42936C0.890145 11.176 -0.531521 18.7327 0.165145 26.196C0.168479 26.2327 0.188479 26.2677 0.216812 26.2894C3.63848 28.8027 6.95181 30.3277 10.2051 31.3377C10.2568 31.3544 10.3118 31.3344 10.3451 31.291C11.1151 30.241 11.8001 29.1327 12.3885 27.9677C12.4235 27.8994 12.3901 27.8177 12.3185 27.791C11.2301 27.3777 10.1951 26.8744 9.19848 26.3044C9.12014 26.2577 9.11348 26.146 9.18515 26.091C9.39515 25.9344 9.60515 25.771 9.80515 25.606C9.84181 25.576 9.89181 25.5694 9.93515 25.5894C16.4818 28.5777 23.5685 28.5777 30.0368 25.5894C30.0801 25.5694 30.1301 25.5744 30.1685 25.606C30.3685 25.771 30.5785 25.936 30.7901 26.0927C30.8635 26.146 30.8585 26.2594 30.7785 26.306C29.7818 26.8877 28.7468 27.381 27.6568 27.791C27.5851 27.8177 27.5551 27.901 27.5885 27.9694C28.1885 29.1327 28.8751 30.241 29.6301 31.291C29.6618 31.336 29.7185 31.3544 29.7701 31.3394C33.0385 30.3277 36.3535 28.8027 39.7735 26.291C39.8035 26.2694 39.8218 26.236 39.8251 26.1994C40.6585 17.571 38.4285 10.076 33.9118 3.43269C33.9035 3.40936 33.8835 3.39269 33.8618 3.38436ZM13.3668 21.6527C11.3951 21.6527 9.77181 19.8427 9.77181 17.621C9.77181 15.3994 11.3635 13.5894 13.3668 13.5894C15.3851 13.5894 16.9935 15.4144 16.9618 17.621C16.9618 19.8444 15.3685 21.6527 13.3668 21.6527ZM26.6585 21.6527C24.6885 21.6527 23.0635 19.8427 23.0635 17.621C23.0635 15.3994 24.6551 13.5894 26.6585 13.5894C28.6768 13.5894 30.2851 15.4144 30.2535 17.621C30.2535 19.8444 28.6768 21.6527 26.6585 21.6527Z" fill="#921D1D"/>
</svg>
