<svg width="36" height="38" viewBox="0 0 36 38" fill="none" xmlns="http://www.w3.org/2000/svg">
<path d="M4.35121 10.4308C4.75493 11.0773 6.2676 11.2306 7.65251 11.2255C7.39699 11.0006 7.11848 10.7809 6.84763 10.5739C6.64066 10.4104 6.44646 10.2647 6.24972 10.1191C5.44228 9.51096 4.59907 8.88238 3.90917 7.85776L3.82229 7.73255C3.55137 7.32931 3.39514 6.86001 3.37029 6.37484C3.34545 5.88968 3.45293 5.40688 3.68125 4.97807C3.90956 4.54926 4.25012 4.19056 4.66652 3.94032C5.08292 3.69009 5.5595 3.55773 6.0453 3.55739C6.24204 3.55814 6.43816 3.57955 6.63044 3.62127C8.08945 3.95088 9.39259 4.75066 10.7366 6.14068C11.0637 6.44474 11.3601 6.76414 11.6437 7.08098C11.4878 5.6373 11.1633 3.93811 10.4862 3.53184C9.80908 3.12556 9.44625 3.94322 9.44625 3.94322C9.44625 3.94322 9.13451 1.50302 8.115 1.28328C7.09548 1.06353 7.21557 2.38967 7.21557 2.38967C7.21557 2.38967 5.96353 -0.0428632 4.71916 0.000574911C3.47479 0.044013 3.81718 1.69466 3.81718 1.69466C3.81718 1.69466 1.29522 -0.367372 0.260369 0.64448C-0.774479 1.65633 1.6095 3.86912 1.6095 3.86912C1.6095 3.86912 -0.0896902 3.71325 0.00996183 4.95507C0.109614 6.19689 2.8641 7.30584 2.8641 7.30584C2.8641 7.30584 1.52518 7.34161 1.85736 8.32791C2.18953 9.31421 4.60162 9.58761 4.60162 9.58761C4.60162 9.58761 3.93727 9.76903 4.35121 10.4308Z" fill="#921C1D"/>
<path d="M28.0295 26.1147C28.8677 26.1147 29.5473 25.1206 29.5473 23.8943C29.5473 22.668 28.8677 21.6738 28.0295 21.6738C27.1913 21.6738 26.5117 22.668 26.5117 23.8943C26.5117 25.1206 27.1913 26.1147 28.0295 26.1147Z" fill="#921C1D"/>
<path d="M33.5401 4.80379C33.5401 4.80379 35.7708 2.7392 34.7998 1.78612C33.8288 0.833035 31.4602 2.77497 31.4602 2.77497C31.4602 2.77497 31.7796 1.22142 30.6119 1.18309C29.4441 1.14477 28.2688 3.42654 28.2688 3.42654C28.2688 3.42654 28.3786 2.17195 27.4204 2.37892C26.4622 2.58589 26.171 4.87278 26.171 4.87278C26.171 4.87278 25.8234 4.10622 25.1949 4.48694C24.5663 4.86767 24.2699 6.37778 24.1191 7.70903C24.3747 7.43307 24.6302 7.15711 24.9112 6.89137C26.1888 5.57545 27.4179 4.81912 28.7977 4.50994C28.9837 4.46712 29.174 4.44568 29.3649 4.44606C29.8325 4.44554 30.2914 4.57204 30.6926 4.81206C31.0939 5.05208 31.4224 5.39659 31.6431 5.8088C31.8637 6.221 31.9683 6.68541 31.9455 7.15241C31.9227 7.61941 31.7735 8.07146 31.5138 8.46025L31.427 8.58801C30.7754 9.55898 29.9833 10.1518 29.2167 10.7267C29.0328 10.8621 28.8513 11.0001 28.6674 11.1432C28.4289 11.3272 28.1938 11.5162 27.9621 11.7104C29.2397 11.7104 30.5889 11.5571 30.9594 10.9643C31.3299 10.3715 30.732 10.1748 30.732 10.1748C30.732 10.1748 32.9958 9.91926 33.3076 8.99428C33.6193 8.06931 32.3622 8.03098 32.3622 8.03098C32.3622 8.03098 34.9506 6.98847 35.0451 5.8233C35.1396 4.65814 33.5401 4.80379 33.5401 4.80379Z" fill="#921C1D"/>
<path d="M9.53771 21.2964C8.47731 21.2964 7.61621 22.4615 7.61621 23.8976C7.61621 25.3336 8.47731 26.4962 9.53771 26.4962C10.5981 26.4962 11.4618 25.331 11.4618 23.8976C11.4618 22.4641 10.6083 21.2964 9.53771 21.2964Z" fill="#921C1D"/>
<path d="M28.061 18.0212C25.6183 18.0212 24.0239 18.6957 23.0146 19.4265C22.571 18.7623 22.0754 18.1343 21.5326 17.5484C21.7191 17.252 21.9107 16.9556 22.1049 16.6695C22.4345 16.1763 22.7872 15.6985 23.1398 15.2258C23.4924 14.7531 23.8757 14.3085 24.2462 13.8588L24.8313 13.2097C25.0229 12.9926 25.235 12.7907 25.4292 12.5812C26.2254 11.7551 27.0793 10.9866 27.9844 10.2815C28.8787 9.57372 29.819 9.00392 30.5166 7.98184L30.5983 7.85664C30.7682 7.60817 30.859 7.31422 30.859 7.01326C30.859 6.71229 30.7682 6.41834 30.5984 6.16985C30.4286 5.92136 30.1878 5.72992 29.9074 5.62057C29.627 5.51122 29.3201 5.48905 29.0269 5.55698C27.6701 5.8636 26.5816 6.70425 25.6643 7.65733C25.1762 8.10705 24.7521 8.61808 24.31 9.10612C24.098 9.36164 23.9038 9.61716 23.6993 9.87268L23.3978 10.2611L23.1168 10.6648C22.3652 11.7275 21.7167 12.8595 21.1799 14.0453C20.9065 14.6304 20.6689 15.2334 20.4594 15.8339C20.3955 16.0179 20.3367 16.2044 20.2805 16.3884C19.6267 15.9052 18.8367 15.6414 18.0237 15.635C17.2108 15.6286 16.4166 15.8798 15.7553 16.3526C15.6837 16.1073 15.6071 15.862 15.5253 15.6167C15.2954 14.9703 15.0475 14.3264 14.7588 13.7029C14.1864 12.44 13.495 11.2345 12.6942 10.1026L12.3978 9.70403L12.0912 9.29265C11.874 9.01925 11.6644 8.73562 11.4396 8.46733C10.9694 7.95629 10.5172 7.40437 9.99847 6.93422C9.01983 5.91215 7.86233 5.0255 6.42121 4.69844C6.11009 4.62803 5.785 4.65272 5.48809 4.7693C5.19117 4.88588 4.93612 5.08898 4.75602 5.35225C4.57591 5.61552 4.47906 5.92683 4.478 6.24581C4.47695 6.56479 4.57176 6.87673 4.75012 7.14119L4.837 7.26895C5.578 8.37279 6.57963 8.97581 7.53272 9.72959C8.49723 10.4748 9.40747 11.2877 10.2565 12.1621C10.4661 12.387 10.6909 12.6016 10.8953 12.8316L11.5188 13.524C11.9123 14.0044 12.316 14.4822 12.6967 14.9805C13.0775 15.4787 13.448 16.0026 13.8006 16.5136C14.0305 16.856 14.2605 17.2112 14.4777 17.5638C14.1579 17.9056 13.856 18.2638 13.5732 18.6369C12.5979 17.6669 11.282 17.1166 9.90648 17.1038C6.70739 17.1038 4.11133 20.1496 4.11133 23.9083C4.11133 27.437 6.41099 30.3371 9.32901 30.677C9.23447 31.7144 9.18081 32.8156 9.18081 33.9987C9.18081 33.9987 13.5604 37.3204 19.5702 37.3204C25.58 37.3204 26.8524 33.9987 26.8524 33.9987C26.8518 32.5903 26.7665 31.1833 26.5969 29.7852C27.4478 29.8261 28.0713 29.7852 28.0713 29.7852C30.4731 29.7852 32.4151 27.1534 32.4151 23.9083C32.4151 20.6632 30.4629 18.0212 28.061 18.0212ZM9.53598 28.7631C7.38196 28.7631 5.63677 26.5836 5.63677 23.9083C5.63677 21.233 7.38963 19.0253 9.53598 19.0253C11.6823 19.0253 13.4377 21.2049 13.4377 23.8955C13.4377 26.5861 11.7002 28.7631 9.53598 28.7631ZM23.9523 29.5297C23.7351 31.1113 22.7079 31.9878 20.8222 31.9878C18.9365 31.9878 17.9068 31.1113 17.6896 29.5297C17.6708 29.4022 17.6823 29.2721 17.7231 29.1498C17.7638 29.0276 17.8327 28.9166 17.9242 28.8259C18.0157 28.7352 18.1272 28.6672 18.2498 28.6274C18.3723 28.5877 18.5025 28.5773 18.6299 28.597C20.0808 28.8355 21.561 28.8355 23.012 28.597C23.1402 28.5758 23.2715 28.5852 23.3953 28.6245C23.5191 28.6638 23.6319 28.7318 23.7244 28.823C23.8168 28.9142 23.8864 29.0261 23.9273 29.1493C23.9683 29.2726 23.9795 29.4038 23.96 29.5322L23.9523 29.5297ZM28.0278 28.201C27.3489 28.1865 26.7014 27.9121 26.2188 27.4344C25.919 25.9178 25.4776 24.4327 24.9003 22.9986C25.2018 21.0363 26.4871 19.5645 28.0278 19.5645C29.7935 19.5645 31.2218 21.4962 31.2218 23.8802C31.2218 26.2642 29.7935 28.201 28.0278 28.201Z" fill="#921C1D"/>
</svg>
