<svg width="674" height="57" viewBox="0 0 674 57" fill="none" xmlns="http://www.w3.org/2000/svg">
<path d="M2.6875 56.8125C2.27083 56.7708 1.8125 56.5208 1.3125 56.0625C0.8125 55.6458 0.479167 55.25 0.3125 54.875C0.145833 54.5417 0.0625 54.2083 0.0625 53.875V3.25C0.104167 2.79167 0.229167 2.35417 0.4375 1.9375C0.645833 1.52083 0.875 1.16667 1.125 0.875C1.41667 0.541667 1.70833 0.3125 2 0.1875C2.33333 0.0625 2.66667 0.0416667 3 0.125C5.20833 1.20833 7.33333 2.39583 9.375 3.6875C11.4167 4.9375 13.5625 5.97917 15.8125 6.8125H28.4375C29.6042 5.89583 30.5625 4.83333 31.3125 3.625C32.1042 2.41667 33.0625 1.39583 34.1875 0.5625L34.9375 0.5C37.1458 1.54167 39.1875 2.79167 41.0625 4.25C42.9792 5.70833 44.4167 6.91667 45.375 7.875C46.3333 8.83333 46.8958 9.4375 47.0625 9.6875C47.2292 9.9375 47.2917 10.25 47.25 10.625C46.7083 11.5833 46.0625 12.5208 45.3125 13.4375C44.5625 14.3542 44.1667 15.3958 44.125 16.5625C44.5 17.7708 44.6458 19.3958 44.5625 21.4375L44.4375 22.4375C44.2292 24.4375 43.7917 26.4167 43.125 28.375C42.5 30.2917 41.4583 31.9583 40 33.375C39.375 34 38.6875 34.4583 37.9375 34.75C37.2292 35.0417 36.4583 35.25 35.625 35.375H33.875C32.9583 35.3333 32.0833 35.1458 31.25 34.8125C30.4167 34.4792 29.6667 33.9792 29 33.3125L28.125 32.25H12.625V53.75C12.5833 54.1667 12.4792 54.5625 12.3125 54.9375C12.1458 55.3542 11.9167 55.6875 11.625 55.9375C11.3333 56.2292 11.0833 56.4375 10.875 56.5625C10.6667 56.6875 10.3958 56.7708 10.0625 56.8125H2.6875ZM30.25 28.4375C30.625 28.1875 30.9375 27.875 31.1875 27.5C31.4792 27.0833 31.7917 26.5417 32.125 25.875C32.4583 25.2083 32.6875 24.4375 32.8125 23.5625C32.9792 22.6875 33.125 21.7917 33.25 20.875C33.2917 19.8333 33.2708 18.6667 33.1875 17.375C32.9792 16.25 32.7083 15.1042 32.375 13.9375C32.0417 12.7708 31.4583 11.75 30.625 10.875C30.375 10.625 30.0833 10.4167 29.75 10.25C29.4167 10.0833 29.0625 9.97917 28.6875 9.9375H15.25C14.75 10.1875 14.25 10.5417 13.75 11C13.2917 11.4167 12.9167 11.8958 12.625 12.4375V29.0625H28.8125L30.25 28.4375ZM56.125 56.75C55.7917 56.625 55.4792 56.4792 55.1875 56.3125C54.8958 56.1875 54.625 55.9792 54.375 55.6875C54.125 55.3958 53.9167 55.0625 53.75 54.6875C53.5833 54.3542 53.4792 54.0208 53.4375 53.6875V20.375C53.5208 19.875 53.6875 19.3958 53.9375 18.9375C54.1875 18.4792 54.4583 18.1042 54.75 17.8125C55.0417 17.5208 55.3333 17.3125 55.625 17.1875C55.9167 17.0625 56.2292 17.0417 56.5625 17.125C58.8125 18.0833 60.9583 19.2083 63 20.5C65.0417 21.7917 67.1458 22.9375 69.3125 23.9375H76.9375L78 23.25C78.8333 22.25 79.6042 21.2292 80.3125 20.1875C81.0625 19.1458 81.9792 18.2083 83.0625 17.375L83.875 17.3125C86.125 18.3542 88.2083 19.625 90.125 21.125C92.0833 22.5833 93.5625 23.8125 94.5625 24.8125C95.5625 25.7708 96.1667 26.3958 96.375 26.6875C96.625 26.9792 96.7917 27.2917 96.875 27.625C96.4167 28.7083 95.7917 29.7083 95 30.625C94.25 31.5417 93.75 32.5833 93.5 33.75V40.6875C93.4583 41.0625 93.3333 41.4375 93.125 41.8125C92.9583 42.1458 92.7292 42.4375 92.4375 42.6875C92.1458 42.9375 91.8542 43.1042 91.5625 43.1875C91.3125 43.2708 91.0417 43.3333 90.75 43.375H83.125C82.7917 43.3333 82.4375 43.2292 82.0625 43.0625C81.7292 42.8542 81.4375 42.625 81.1875 42.375C80.9792 42.125 80.7917 41.8542 80.625 41.5625C80.4583 41.2708 80.3542 40.9792 80.3125 40.6875V30.125C80.0208 29.5417 79.625 29 79.125 28.5C78.625 28 77.9792 27.5625 77.1875 27.1875H69.6875C69.1042 27.4792 68.5208 27.875 67.9375 28.375C67.3958 28.8333 66.9792 29.3958 66.6875 30.0625V53.5625C66.6458 54.0625 66.5208 54.5208 66.3125 54.9375C66.1458 55.3958 65.8958 55.75 65.5625 56C65.2292 56.2917 64.9375 56.4792 64.6875 56.5625C64.4792 56.6458 64.25 56.7083 64 56.75H56.125ZM108.5 56.75C108.083 56.6667 107.708 56.5208 107.375 56.3125C107.042 56.1458 106.729 55.8958 106.438 55.5625C106.146 55.2292 105.917 54.8542 105.75 54.4375C105.583 54.0208 105.458 53.6042 105.375 53.1875V27C105.333 26.5 105.438 25.9792 105.688 25.4375C105.979 24.8958 106.354 24.4167 106.812 24L107.625 23.5H108.75C111.292 24.5417 113.812 25.75 116.312 27.125C118.812 28.4583 121.167 29.9375 123.375 31.5625L123.5 31.9375C123.417 32.1875 123.271 32.4167 123.062 32.625C122.896 32.8333 122.604 33.125 122.188 33.5C121.771 33.8333 121.188 34.2083 120.438 34.625C119.688 35.0417 119.104 35.6042 118.688 36.3125L118.562 36.5625V53.75C118.521 54.1667 118.396 54.5625 118.188 54.9375C117.979 55.3125 117.729 55.625 117.438 55.875C117.188 56.125 116.896 56.3125 116.562 56.4375C116.271 56.5625 115.958 56.6667 115.625 56.75H108.5ZM111.375 19.0625C110 18.1458 108.979 17.5417 108.312 17.25C107.646 16.9583 106.354 17.1042 104.438 17.6875C104.771 17.2292 105.125 16.8125 105.5 16.4375C105.917 16.0208 106.354 15.6667 106.812 15.375C107.271 15.0417 107.917 14.8333 108.75 14.75V14.5L108.688 13.5625C108.229 11.5208 107.458 9.60417 106.375 7.8125C105.292 6.02083 104.167 4.25 103 2.5H104.438C106.938 2.95833 109.375 3.75 111.75 4.875C114.125 5.95833 115.875 7.10417 117 8.3125C118.125 9.47917 118.854 10.375 119.188 11C119.521 11.5833 119.75 12.2292 119.875 12.9375V14.75C119.75 15.5 119.562 16.1875 119.312 16.8125C119.104 17.3958 118.75 17.8958 118.25 18.3125C117.75 18.7292 117.208 19.0208 116.625 19.1875C116.083 19.3125 115.417 19.4375 114.625 19.5625C113.875 19.6458 112.792 19.4792 111.375 19.0625ZM135.375 56.25C132.875 55 131.167 53.375 130.25 51.375C129.833 50.5 129.729 49.6667 129.938 48.875C130.146 48.0417 130.542 47.25 131.125 46.5L154.375 23.6875H130.625C130.125 23.5625 129.792 23.2708 129.625 22.8125V21.125C129.625 20.7917 129.688 20.5625 129.812 20.4375C129.979 20.3125 130.208 20.25 130.5 20.25H157.812C158.521 19.625 159.167 18.9792 159.75 18.3125C160.333 17.6042 161.062 17.1042 161.938 16.8125H163.062C164.771 17.5208 166.271 18.5208 167.562 19.8125C168.854 21.0625 169.958 22.1667 170.875 23.125C171.792 24.0833 172.521 24.875 173.062 25.5C173.604 26.0833 174.042 26.7083 174.375 27.375C174.125 27.625 173.792 27.8333 173.375 28C172.958 28.125 171.583 28.25 169.25 28.375L145.812 50.5625H173.062C173.479 50.6458 173.75 50.8958 173.875 51.3125V53.375C173.833 53.5833 173.75 53.7292 173.625 53.8125C173.5 53.8958 173.333 53.9792 173.125 54.0625H142C141.375 54.6042 140.729 55.1042 140.062 55.5625C139.438 56.0208 138.75 56.3333 138 56.5C137.25 56.6667 136.375 56.5833 135.375 56.25ZM182.812 56.6875C182.479 56.5625 182.167 56.4167 181.875 56.25C181.583 56.125 181.312 55.8958 181.062 55.5625C180.812 55.2292 180.604 54.875 180.438 54.5C180.271 54.125 180.167 53.75 180.125 53.375V20.6875C180.208 20.1458 180.375 19.625 180.625 19.125C180.875 18.625 181.146 18.2292 181.438 17.9375C181.729 17.6042 182.021 17.375 182.312 17.25C182.604 17.0833 182.917 17.0625 183.25 17.1875C185.5 18.2292 187.646 19.4583 189.688 20.875C191.729 22.25 193.833 23.4792 196 24.5625H203.625L204.688 23.8125C205.521 22.7292 206.292 21.625 207 20.5C207.75 19.375 208.667 18.3542 209.75 17.4375L210.562 17.375C212.812 18.5 214.896 19.875 216.812 21.5C218.771 23.0833 220.25 24.4167 221.25 25.5C222.25 26.5417 222.854 27.2292 223.062 27.5625C223.312 27.8542 223.479 28.1667 223.562 28.5C223.104 29.6667 222.479 30.75 221.688 31.75C220.938 32.75 220.438 33.875 220.188 35.125V39.375C220.146 39.7917 220.021 40.2083 219.812 40.625C219.646 41 219.417 41.3333 219.125 41.625C218.833 41.875 218.542 42.0417 218.25 42.125C218 42.2083 217.729 42.2708 217.438 42.3125H209.812C209.479 42.2708 209.125 42.1458 208.75 41.9375C208.417 41.7292 208.104 41.4792 207.812 41.1875L207.062 40H193.375V50.6875H203.312C204.479 49.6458 205.458 48.4375 206.25 47.0625C207.042 45.6458 208.062 44.5 209.312 43.625L210 43.4375C212.375 44.3542 214.604 45.5625 216.688 47.0625C218.771 48.5625 220.312 49.7917 221.312 50.75C222.354 51.7083 222.917 52.2708 223 52.4375C223.083 52.6458 223.083 52.8333 223 53C222.958 53.1667 222.854 53.3542 222.688 53.5625C222.562 53.8125 222.104 54.0208 221.312 54.1875H193.312C193.188 55.1458 192.854 55.8125 192.312 56.1875C191.812 56.6042 191.271 56.7708 190.688 56.6875H182.812ZM207 36.5V31.25C206.708 30.5833 206.312 30 205.812 29.5C205.312 28.9583 204.667 28.4792 203.875 28.0625H196.375C195.792 28.3542 195.208 28.7708 194.625 29.3125C194.083 29.8125 193.667 30.4375 193.375 31.1875V36.5H207ZM259.438 56.8125C258.979 56.7708 258.521 56.6458 258.062 56.4375C257.646 56.2292 257.312 55.9583 257.062 55.625C256.812 55.3333 256.625 55.0208 256.5 54.6875C256.375 54.3958 256.312 54.1042 256.312 53.8125H230.25C229.708 53.7292 229.354 53.3958 229.188 52.8125V51.4375C229.354 50.9375 229.708 50.6042 230.25 50.4375H256.25V43.125C256.167 42.75 255.979 42.4167 255.688 42.125C255.396 41.8333 255.104 41.5625 254.812 41.3125C254.521 41.0208 254.229 40.7917 253.938 40.625C253.688 40.4167 253.375 40.25 253 40.125H242.812C242.729 41.0417 242.438 41.7917 241.938 42.375C241.479 42.9167 240.833 43.2292 240 43.3125H231.938C231.562 43.1875 231.208 43.0417 230.875 42.875C230.583 42.6667 230.312 42.4375 230.062 42.1875C229.854 41.8958 229.646 41.5833 229.438 41.25C229.271 40.875 229.188 40.5 229.188 40.125V20C229.271 19.5 229.417 19.0208 229.625 18.5625C229.833 18.1042 230.083 17.7292 230.375 17.4375C230.667 17.1042 230.979 16.875 231.312 16.75C231.646 16.5833 232 16.5417 232.375 16.625C234.583 17.5833 236.729 18.7292 238.812 20.0625C240.938 21.3542 243.083 22.5417 245.25 23.625H252.5C253.667 22.5833 254.646 21.4167 255.438 20.125C256.271 18.8333 257.375 17.7708 258.75 16.9375H259.625C261.958 17.8125 264.188 18.9583 266.312 20.375C268.479 21.75 270.5 23.3125 272.375 25.0625L272.625 25.875L272.188 26.5C271.938 26.6667 271.646 26.7917 271.312 26.875C271.021 26.9167 270.729 26.9583 270.438 27H245.625C245.042 27.3333 244.479 27.75 243.938 28.25C243.438 28.7083 243.021 29.25 242.688 29.875V36.75H253C254.167 35.8333 255.188 34.7292 256.062 33.4375C256.938 32.1458 257.958 31.0417 259.125 30.125L259.875 30.0625C262.208 31.1042 264.417 32.3958 266.5 33.9375C268.583 35.4375 270.125 36.6875 271.125 37.6875C272.125 38.6875 272.688 39.3125 272.812 39.5625C272.938 39.7708 272.979 40.0208 272.938 40.3125L272.062 41.4375C271.646 41.6875 271.229 42.0208 270.812 42.4375C270.396 42.8125 270.062 43.375 269.812 44.125V53.4375C269.771 53.9375 269.646 54.3958 269.438 54.8125C269.271 55.2708 269.021 55.6458 268.688 55.9375C268.354 56.2708 268.021 56.4792 267.688 56.5625C267.354 56.6875 267 56.7708 266.625 56.8125H259.438ZM313.375 56.8125C313.042 56.7708 312.75 56.6458 312.5 56.4375C312.25 56.2708 311.979 56.0625 311.688 55.8125C311.396 55.5625 311.167 55.25 311 54.875C310.875 54.5417 310.812 54.2083 310.812 53.875V3.3125C310.812 2.85417 310.938 2.41667 311.188 2C311.438 1.54167 311.688 1.16667 311.938 0.875C312.229 0.583333 312.521 0.375 312.812 0.25C313.104 0.125 313.396 0.104167 313.688 0.1875C315.729 1.02083 317.667 2.04167 319.5 3.25C321.375 4.45833 323.312 5.54167 325.312 6.5H339.25C340.208 5.54167 341.083 4.5 341.875 3.375C342.708 2.20833 343.688 1.20833 344.812 0.375L345.562 0.25C347.771 1.33333 349.833 2.625 351.75 4.125C353.708 5.58333 355.229 6.91667 356.312 8.125C357.438 9.33333 357.979 10.0833 357.938 10.375C357.396 11.2917 356.792 12.1667 356.125 13C355.458 13.8333 355 14.7708 354.75 15.8125V54.125C354.708 54.5 354.583 54.8542 354.375 55.1875C354.208 55.5625 353.979 55.8542 353.688 56.0625C353.438 56.2708 353.208 56.4375 353 56.5625C352.792 56.6875 352.542 56.7708 352.25 56.8125H344.75C344.375 56.7708 344.042 56.6667 343.75 56.5C343.5 56.375 343.25 56.1667 343 55.875C342.75 55.5833 342.542 55.25 342.375 54.875C342.25 54.5 342.167 54.125 342.125 53.75V31.6875H323.375V53.75C323.333 54.1667 323.208 54.5625 323 54.9375C322.833 55.3542 322.604 55.6875 322.312 55.9375C322.062 56.2292 321.812 56.4375 321.562 56.5625C321.354 56.6875 321.104 56.7708 320.812 56.8125H313.375ZM342.125 28.5625V12.375C341.833 11.9167 341.458 11.4583 341 11C340.542 10.5417 339.958 10.125 339.25 9.75H326.438C325.979 10 325.438 10.3333 324.812 10.75C324.229 11.125 323.75 11.7292 323.375 12.5625V28.5625H342.125ZM386.75 56.6875C386.083 56.5208 385.438 56.2708 384.812 55.9375C384.188 55.6042 383.604 55.1458 383.062 54.5625L364.312 19.3125C364.312 18.3958 364.396 17.7708 364.562 17.4375C364.729 17.0625 365 16.75 365.375 16.5L365.875 16.1875C372.875 16.7292 376.979 17.1042 378.188 17.3125C379.438 17.5208 380.667 17.7917 381.875 18.125L382.125 19C381.917 19.5833 381.625 20.1458 381.25 20.6875C380.875 21.1875 380.688 21.7917 380.688 22.5L391.688 43.25L402.875 16.5625C403.042 16.4375 403.229 16.3542 403.438 16.3125C403.646 16.2708 403.875 16.25 404.125 16.25L406.062 17.125C406.354 17.4583 406.5 17.7708 406.5 18.0625L393.938 50.75C394.062 51.5833 394.042 52.3333 393.875 53C393.75 53.3333 393.583 53.6667 393.375 54C393.208 54.3333 392.917 54.6875 392.5 55.0625C392.083 55.4375 391.562 55.75 390.938 56C390.312 56.2917 389.688 56.5 389.062 56.625C388.438 56.75 387.667 56.7708 386.75 56.6875ZM427.25 56.75C425.458 56.5417 423.771 56.0417 422.188 55.25C420.604 54.5 419.083 53.4167 417.625 52C416.167 50.5833 415.021 48.8542 414.188 46.8125C413.396 44.7292 412.917 42.6667 412.75 40.625C412.583 38.5833 412.583 36.6875 412.75 34.9375C412.917 33.1458 413.438 31.3542 414.312 29.5625C415.188 27.7708 416.312 26.2292 417.688 24.9375C419.104 23.6042 420.625 22.5833 422.25 21.875C423.875 21.125 425.625 20.6667 427.5 20.5C429.417 20.3333 431.146 20.3125 432.688 20.4375C434.229 20.5208 435.479 20.7083 436.438 21C437.396 21.25 438.312 21.6042 439.188 22.0625V19.3125C439.229 18.9792 439.354 18.6875 439.562 18.4375C439.771 18.1458 440.021 17.875 440.312 17.625L441.562 17.125H442.438C444.646 17.75 446.812 18.5208 448.938 19.4375C451.062 20.3125 453.083 21.3125 455 22.4375L455.125 22.875C454.75 23.4167 454.292 23.875 453.75 24.25C453.25 24.5833 452.812 25 452.438 25.5V54.8125C452.146 55.5625 451.729 56.0625 451.188 56.3125C450.688 56.6042 450.083 56.7917 449.375 56.875H442.25C441.75 56.7917 441.271 56.6667 440.812 56.5C440.354 56.3333 439.812 55.75 439.188 54.75V51.5625C438.396 52.6875 437.562 53.6458 436.688 54.4375C435.812 55.2292 434.729 55.8125 433.438 56.1875C432.146 56.6042 430.083 56.7917 427.25 56.75ZM435.562 52.1875C436.271 51.7708 436.917 51.25 437.5 50.625C438.083 50 438.562 49.3125 438.938 48.5625L439.188 47.5625V28C439.062 27.7083 438.896 27.4167 438.688 27.125C438.521 26.8333 438.292 26.5625 438 26.3125C437.125 25.6042 436.167 25.0417 435.125 24.625C434.125 24.2083 433.062 23.9167 431.938 23.75H430.125C429.5 23.875 428.875 24.0833 428.25 24.375C427.667 24.625 427.146 25 426.688 25.5L426 26.875V50.6875C426.042 50.9792 426.125 51.2708 426.25 51.5625C426.417 51.8542 426.708 52.1667 427.125 52.5C427.542 52.8333 428.083 53.0833 428.75 53.25C429.417 53.4583 430.083 53.5417 430.75 53.5H432.125C432.75 53.375 433.333 53.1875 433.875 52.9375C434.458 52.7292 435.021 52.4792 435.562 52.1875ZM466.562 56.75C466.146 56.6667 465.771 56.5208 465.438 56.3125C465.104 56.1458 464.792 55.8958 464.5 55.5625C464.208 55.2292 463.979 54.8542 463.812 54.4375C463.646 54.0208 463.521 53.6042 463.438 53.1875V27C463.396 26.5 463.5 25.9792 463.75 25.4375C464.042 24.8958 464.417 24.4167 464.875 24L465.688 23.5H466.812C469.354 24.5417 471.875 25.75 474.375 27.125C476.875 28.4583 479.229 29.9375 481.438 31.5625L481.562 31.9375C481.479 32.1875 481.333 32.4167 481.125 32.625C480.958 32.8333 480.667 33.125 480.25 33.5C479.833 33.8333 479.25 34.2083 478.5 34.625C477.75 35.0417 477.167 35.6042 476.75 36.3125L476.625 36.5625V53.75C476.583 54.1667 476.458 54.5625 476.25 54.9375C476.042 55.3125 475.792 55.625 475.5 55.875C475.25 56.125 474.958 56.3125 474.625 56.4375C474.333 56.5625 474.021 56.6667 473.688 56.75H466.562ZM469.438 19.0625C468.062 18.1458 467.042 17.5417 466.375 17.25C465.708 16.9583 464.417 17.1042 462.5 17.6875C462.833 17.2292 463.188 16.8125 463.562 16.4375C463.979 16.0208 464.417 15.6667 464.875 15.375C465.333 15.0417 465.979 14.8333 466.812 14.75V14.5L466.75 13.5625C466.292 11.5208 465.521 9.60417 464.438 7.8125C463.354 6.02083 462.229 4.25 461.062 2.5H462.5C465 2.95833 467.438 3.75 469.812 4.875C472.188 5.95833 473.938 7.10417 475.062 8.3125C476.188 9.47917 476.917 10.375 477.25 11C477.583 11.5833 477.812 12.2292 477.938 12.9375V14.75C477.812 15.5 477.625 16.1875 477.375 16.8125C477.167 17.3958 476.812 17.8958 476.312 18.3125C475.812 18.7292 475.271 19.0208 474.688 19.1875C474.146 19.3125 473.479 19.4375 472.688 19.5625C471.938 19.6458 470.854 19.4792 469.438 19.0625ZM490.25 56.9375C489.875 56.8958 489.562 56.7708 489.312 56.5625C489.104 56.3958 488.833 56.1667 488.5 55.875C488.208 55.625 487.979 55.3333 487.812 55C487.688 54.6667 487.625 54.3125 487.625 53.9375V5.5625C487.625 5.0625 487.75 4.60417 488 4.1875C488.25 3.72917 488.521 3.35417 488.812 3.0625C489.104 2.77083 489.375 2.5625 489.625 2.4375C489.917 2.3125 490.229 2.29167 490.562 2.375C493.146 3.41667 495.625 4.60417 498 5.9375C500.375 7.27083 502.688 8.70833 504.938 10.25L505.062 10.875C504.396 11.6667 503.562 12.3333 502.562 12.875C501.604 13.4167 500.854 14.1458 500.312 15.0625L500.25 15.5V53.75C500.25 54.25 500.146 54.6875 499.938 55.0625C499.771 55.4792 499.542 55.8125 499.25 56.0625C499 56.3542 498.75 56.5625 498.5 56.6875C498.292 56.8125 498.021 56.8958 497.688 56.9375H490.25ZM525.375 56.75C523.583 56.5417 521.896 56.0417 520.312 55.25C518.729 54.5 517.208 53.4167 515.75 52C514.292 50.5833 513.146 48.8542 512.312 46.8125C511.521 44.7292 511.042 42.6667 510.875 40.625C510.708 38.5833 510.708 36.6875 510.875 34.9375C511.042 33.1458 511.562 31.3542 512.438 29.5625C513.312 27.7708 514.438 26.2292 515.812 24.9375C517.229 23.6042 518.75 22.5833 520.375 21.875C522 21.125 523.75 20.6667 525.625 20.5C527.542 20.3333 529.271 20.3125 530.812 20.4375C532.354 20.5208 533.604 20.7083 534.562 21C535.521 21.25 536.438 21.6042 537.312 22.0625V19.3125C537.354 18.9792 537.479 18.6875 537.688 18.4375C537.896 18.1458 538.146 17.875 538.438 17.625L539.688 17.125H540.562C542.771 17.75 544.938 18.5208 547.062 19.4375C549.188 20.3125 551.208 21.3125 553.125 22.4375L553.25 22.875C552.875 23.4167 552.417 23.875 551.875 24.25C551.375 24.5833 550.938 25 550.562 25.5V54.8125C550.271 55.5625 549.854 56.0625 549.312 56.3125C548.812 56.6042 548.208 56.7917 547.5 56.875H540.375C539.875 56.7917 539.396 56.6667 538.938 56.5C538.479 56.3333 537.938 55.75 537.312 54.75V51.5625C536.521 52.6875 535.688 53.6458 534.812 54.4375C533.938 55.2292 532.854 55.8125 531.562 56.1875C530.271 56.6042 528.208 56.7917 525.375 56.75ZM533.688 52.1875C534.396 51.7708 535.042 51.25 535.625 50.625C536.208 50 536.688 49.3125 537.062 48.5625L537.312 47.5625V28C537.188 27.7083 537.021 27.4167 536.812 27.125C536.646 26.8333 536.417 26.5625 536.125 26.3125C535.25 25.6042 534.292 25.0417 533.25 24.625C532.25 24.2083 531.188 23.9167 530.062 23.75H528.25C527.625 23.875 527 24.0833 526.375 24.375C525.792 24.625 525.271 25 524.812 25.5L524.125 26.875V50.6875C524.167 50.9792 524.25 51.2708 524.375 51.5625C524.542 51.8542 524.833 52.1667 525.25 52.5C525.667 52.8333 526.208 53.0833 526.875 53.25C527.542 53.4583 528.208 53.5417 528.875 53.5H530.25C530.875 53.375 531.458 53.1875 532 52.9375C532.583 52.7292 533.146 52.4792 533.688 52.1875ZM586.688 56.9375C585.812 56.8542 584.917 56.625 584 56.25C583.125 55.9167 582.354 55.3958 581.688 54.6875L580.938 53.6875H572.188C572.104 54.1042 571.979 54.5208 571.812 54.9375C571.688 55.3542 571.479 55.6667 571.188 55.875C570.896 56.125 570.625 56.3125 570.375 56.4375C570.167 56.5625 569.896 56.6458 569.562 56.6875H561.812C561.438 56.6458 561.125 56.5208 560.875 56.3125C560.625 56.1458 560.333 55.9167 560 55.625C559.708 55.375 559.479 55.0625 559.312 54.6875C559.146 54.3542 559.042 54 559 53.625V5.375C559.083 4.875 559.25 4.39583 559.5 3.9375C559.75 3.47917 560.021 3.10417 560.312 2.8125C560.604 2.52083 560.896 2.3125 561.188 2.1875C561.479 2.0625 561.792 2.04167 562.125 2.125C564.792 3.16667 567.354 4.375 569.812 5.75C572.312 7.125 574.708 8.625 577 10.25L577.125 10.875C576.458 11.75 575.562 12.4792 574.438 13.0625C573.354 13.6458 572.604 14.5208 572.188 15.6875V26.9375H581.375C582.5 25.9375 583.458 24.8333 584.25 23.625C585.083 22.375 586.125 21.2917 587.375 20.375L587.938 20.3125C590.229 21.3542 592.396 22.6458 594.438 24.1875C596.479 25.7292 598 27 599 28C600.042 29 600.646 29.6458 600.812 29.9375C601.021 30.2292 601.083 30.5625 601 30.9375C600.5 31.9792 599.854 32.9792 599.062 33.9375C598.312 34.8958 597.875 36 597.75 37.25L598.188 39.1875C598.354 41.1458 598.312 42.8958 598.062 44.4375C597.854 45.9375 597.375 47.7292 596.625 49.8125C595.875 51.8542 594.958 53.375 593.875 54.375C592.792 55.375 591.896 56.0208 591.188 56.3125C590.521 56.6458 589.812 56.8542 589.062 56.9375H586.688ZM583.062 49.8125C583.521 49.4375 583.917 49.0208 584.25 48.5625C584.625 48.0625 584.938 47.4792 585.188 46.8125C585.479 46.1458 585.708 45.3958 585.875 44.5625C586.042 43.6875 586.188 42.8125 586.312 41.9375V38.875C586.188 37.5417 585.938 36.2292 585.562 34.9375C585.188 33.6458 584.708 32.6667 584.125 32C583.583 31.3333 583.167 30.8958 582.875 30.6875C582.583 30.4792 582.25 30.3542 581.875 30.3125H572.25V50.3125H581.812L583.062 49.8125ZM609.625 56.9375C609.25 56.8958 608.938 56.7708 608.688 56.5625C608.479 56.3958 608.208 56.1667 607.875 55.875C607.583 55.625 607.354 55.3333 607.188 55C607.062 54.6667 607 54.3125 607 53.9375V5.5625C607 5.0625 607.125 4.60417 607.375 4.1875C607.625 3.72917 607.896 3.35417 608.188 3.0625C608.479 2.77083 608.75 2.5625 609 2.4375C609.292 2.3125 609.604 2.29167 609.938 2.375C612.521 3.41667 615 4.60417 617.375 5.9375C619.75 7.27083 622.062 8.70833 624.312 10.25L624.438 10.875C623.771 11.6667 622.938 12.3333 621.938 12.875C620.979 13.4167 620.229 14.1458 619.688 15.0625L619.625 15.5V53.75C619.625 54.25 619.521 54.6875 619.312 55.0625C619.146 55.4792 618.917 55.8125 618.625 56.0625C618.375 56.3542 618.125 56.5625 617.875 56.6875C617.667 56.8125 617.396 56.8958 617.062 56.9375H609.625ZM632.75 56.6875C632.417 56.5625 632.104 56.4167 631.812 56.25C631.521 56.125 631.25 55.8958 631 55.5625C630.75 55.2292 630.542 54.875 630.375 54.5C630.208 54.125 630.104 53.75 630.062 53.375V20.6875C630.146 20.1458 630.312 19.625 630.562 19.125C630.812 18.625 631.083 18.2292 631.375 17.9375C631.667 17.6042 631.958 17.375 632.25 17.25C632.542 17.0833 632.854 17.0625 633.188 17.1875C635.438 18.2292 637.583 19.4583 639.625 20.875C641.667 22.25 643.771 23.4792 645.938 24.5625H653.562L654.625 23.8125C655.458 22.7292 656.229 21.625 656.938 20.5C657.688 19.375 658.604 18.3542 659.688 17.4375L660.5 17.375C662.75 18.5 664.833 19.875 666.75 21.5C668.708 23.0833 670.188 24.4167 671.188 25.5C672.188 26.5417 672.792 27.2292 673 27.5625C673.25 27.8542 673.417 28.1667 673.5 28.5C673.042 29.6667 672.417 30.75 671.625 31.75C670.875 32.75 670.375 33.875 670.125 35.125V39.375C670.083 39.7917 669.958 40.2083 669.75 40.625C669.583 41 669.354 41.3333 669.062 41.625C668.771 41.875 668.479 42.0417 668.188 42.125C667.938 42.2083 667.667 42.2708 667.375 42.3125H659.75C659.417 42.2708 659.062 42.1458 658.688 41.9375C658.354 41.7292 658.042 41.4792 657.75 41.1875L657 40H643.312V50.6875H653.25C654.417 49.6458 655.396 48.4375 656.188 47.0625C656.979 45.6458 658 44.5 659.25 43.625L659.938 43.4375C662.312 44.3542 664.542 45.5625 666.625 47.0625C668.708 48.5625 670.25 49.7917 671.25 50.75C672.292 51.7083 672.854 52.2708 672.938 52.4375C673.021 52.6458 673.021 52.8333 672.938 53C672.896 53.1667 672.792 53.3542 672.625 53.5625C672.5 53.8125 672.042 54.0208 671.25 54.1875H643.25C643.125 55.1458 642.792 55.8125 642.25 56.1875C641.75 56.6042 641.208 56.7708 640.625 56.6875H632.75ZM656.938 36.5V31.25C656.646 30.5833 656.25 30 655.75 29.5C655.25 28.9583 654.604 28.4792 653.812 28.0625H646.312C645.729 28.3542 645.146 28.7708 644.562 29.3125C644.021 29.8125 643.604 30.4375 643.312 31.1875V36.5H656.938Z" fill="#921D1D"/>
</svg>
