<svg width="540" height="214" viewBox="0 0 540 214" fill="none" xmlns="http://www.w3.org/2000/svg">
<g clip-path="url(#clip0_568_667)">
<path d="M57.8513 176.312C54.57 178.249 51.1566 179.856 47.6551 181.155C44.1316 182.454 40.52 183.224 36.7763 183.444C39.9474 182.982 43.0746 182.167 46.1356 180.979C49.1967 179.79 52.1696 178.315 55.0545 176.554C57.9394 174.793 60.6481 172.811 63.1365 170.61C65.625 168.409 67.8933 166.097 69.9413 163.72C69.611 163.389 69.2586 163.015 68.9283 162.619C68.598 162.223 68.2456 161.848 67.9153 161.518C67.8052 161.408 67.7171 161.298 67.651 161.188C67.585 161.078 67.4528 160.968 67.2326 160.858C62.9163 165.833 58.1155 170.104 52.7862 173.604C47.4569 177.126 41.4449 179.328 34.7503 180.23C31.7993 180.56 28.8484 180.626 25.8974 180.406C22.9465 180.186 20.0836 179.592 17.3089 178.623C14.5341 177.655 11.9576 176.356 9.57918 174.705C7.20081 173.054 5.15277 170.94 3.45708 168.321C1.54118 165.591 0.418056 162.861 0.131771 160.065C-0.154514 157.291 0.131771 154.562 0.990627 151.898C1.84948 149.234 3.08271 146.681 4.73436 144.237C6.386 141.793 8.21382 139.57 10.2619 137.523C13.7854 134 17.5731 130.918 21.6472 128.255C25.7213 125.591 30.3239 124.27 35.4329 124.27C39.0666 124.27 42.502 124.887 45.7172 126.141C48.9544 127.396 52.0155 129.025 54.9003 131.073C57.7852 133.12 60.538 135.387 63.1586 137.875C65.7572 140.363 68.2016 142.806 70.4698 145.184C71.7251 138.954 72.2536 132.547 72.0774 125.965C71.9013 119.383 71.8132 112.977 71.8132 106.747V66.1086C71.8132 63.5109 72.2977 60.6931 73.2666 57.6992C74.2356 54.7053 75.5569 51.8434 77.2526 49.1137C78.9483 46.3839 80.9082 43.9623 83.1104 41.805C85.3126 39.6476 87.6249 38.1286 90.0033 37.226C92.0513 36.2133 94.1875 35.685 96.4557 35.685C97.8211 35.685 99.3406 35.9712 101.058 36.5436C97.4247 36.2133 94.0774 37.1159 91.0163 39.2733C87.3827 41.893 84.8061 45.3933 83.2866 49.8181C81.7671 54.243 80.9963 58.6018 80.9963 62.9166V110.863C80.9963 113.351 81.0184 115.861 81.0844 118.348C81.1505 120.836 81.1064 123.39 80.9963 126.009C80.666 134.617 78.618 142.564 74.8742 149.807C74.9843 150.027 75.2046 150.313 75.5569 150.665C75.7771 150.995 76.0634 151.348 76.4158 151.678L77.4288 152.69C79.697 148.376 81.3046 144.171 82.2736 140.032C83.2426 135.894 83.7271 131.381 83.7271 126.516V73.4614C83.7271 71.0838 83.8151 68.3981 83.9913 65.3822C84.1675 62.3882 84.5859 59.3943 85.2686 56.4664C85.9513 53.5165 86.9423 50.7647 88.2416 48.2111C89.5408 45.6574 91.3246 43.6982 93.5929 42.3553C95.0684 41.2326 96.764 40.4841 98.702 40.1539C100.75 39.8237 102.622 39.8677 104.318 40.33C102.27 39.9998 100.464 40.0438 98.8782 40.5061C95.1344 41.5188 92.3596 43.6762 90.5539 46.9783C89.1885 49.0256 88.0874 51.5352 87.2285 54.5512C86.3697 57.5451 85.8412 60.2528 85.6209 62.6304C85.4007 63.533 85.2906 64.4355 85.2906 65.3601C85.2906 66.2847 85.2245 67.1653 85.1144 68.0899V126.582C85.1144 131.337 84.5639 135.982 83.5068 140.517C82.4278 145.052 80.7541 149.476 78.4858 153.769C80.5339 156.037 82.67 158.304 84.9603 160.572C87.2285 162.839 89.5629 164.908 91.9412 166.78C94.3196 168.651 96.8521 170.17 99.5168 171.381C102.181 172.569 104.978 173.164 107.929 173.164C113.369 173.164 118.654 172.151 123.741 170.104C128.828 168.056 133.342 165.261 137.262 161.694C141.182 158.128 144.331 153.901 146.71 149.036C149.088 144.171 150.277 138.888 150.277 133.23C150.608 128.365 150.167 123.764 148.912 119.449C146.974 111.964 143.362 105.712 138.033 100.671C132.704 95.6297 126.472 91.8652 119.315 89.3556C124.754 90.2582 129.841 92.0193 134.532 94.617C139.244 97.2367 143.406 100.451 147.04 104.303C150.674 108.156 153.581 112.559 155.805 117.49C158.029 122.421 159.284 127.66 159.637 133.208C159.637 140.12 158.249 146.637 155.475 152.757C152.7 158.876 148.956 164.226 144.243 168.827C139.531 173.406 134.069 177.016 127.837 179.614C121.605 182.211 114.976 183.532 107.929 183.532C104.185 183.532 100.552 183.004 97.0503 181.925C93.5268 180.847 90.2456 179.438 87.1845 177.677C84.1235 175.915 81.2386 173.934 78.5079 171.733C75.7771 169.531 73.2887 167.22 71.0204 164.842C67.2767 169.267 62.9163 173.12 57.9173 176.4L57.8513 176.312ZM20.436 166.625C23.0566 168.21 25.8754 169.399 28.9365 170.192C31.9975 170.984 35.0586 171.381 38.1196 171.381C39.9254 171.381 42.0395 171.204 44.4179 170.874C46.7963 170.544 49.1526 169.994 51.4869 169.267C53.8213 168.519 56.0014 167.594 58.0275 166.471C60.0755 165.327 61.7051 164.028 62.9604 162.553C63.4228 161.98 63.8412 161.386 64.2376 160.77C64.634 160.153 65.0084 159.493 65.3387 158.81C61.4849 154.738 57.4989 150.665 53.3588 146.659C49.2187 142.63 44.5941 139.372 39.507 136.884C36.9084 135.629 34.1777 134.705 31.3369 134.088C28.496 133.472 25.6112 133.428 22.6602 134C21.6472 134.11 20.5021 134.397 19.2688 134.859C18.0136 135.321 16.8024 135.872 15.6132 136.554C14.424 137.236 13.367 138.029 12.4641 138.932C11.5612 139.834 10.8785 140.803 10.416 141.815V142.146C9.51312 144.523 9.13874 146.901 9.31492 149.278C9.4911 151.656 10.0637 153.923 11.0106 156.081C11.9796 158.238 13.2789 160.219 14.9305 162.024C16.5822 163.83 18.41 165.371 20.458 166.603L20.436 166.625ZM108.524 89.7739C105.793 90.4563 103.084 90.9186 100.354 91.1388C97.6229 91.3589 94.9582 91.3589 92.3596 91.1388C97.4687 90.8086 102.159 89.7739 106.476 88.0788C110.792 86.3837 114.514 84.0062 117.707 80.9462C120.878 77.8862 123.345 74.2319 125.106 69.9831C126.868 65.7344 127.749 60.8913 127.749 55.4538C127.639 48.3212 125.899 41.871 122.552 36.1473C119.204 30.4236 114.866 25.6025 109.537 21.706C104.207 17.7875 98.2615 14.7935 91.677 12.7022C85.0924 10.6108 78.5739 9.55415 72.1215 9.55415C66.1095 9.55415 60.1416 10.4788 54.1736 12.35C48.2057 14.2212 42.8323 16.9509 38.0095 20.5172C33.1867 24.0835 29.2007 28.4423 26.0296 33.6157C22.8584 38.767 21.0967 44.5787 20.7663 51.0509C20.5461 47.7708 20.7663 44.4246 21.449 41.0124C22.1317 37.6222 23.2548 34.3862 24.8404 31.3262C26.9985 26.5711 30.0596 22.2563 34.0235 18.4039C37.9875 14.5514 42.3919 11.2713 47.2147 8.5415C52.0375 5.81174 57.1025 3.72039 62.4318 2.24544C67.7611 0.77049 72.9803 0.0440216 78.0894 0.0440216C85.3347 0.0440216 92.4918 1.1007 99.5168 3.19205C106.542 5.2834 112.84 8.43143 118.39 12.6361C123.939 16.8409 128.454 21.9922 131.911 28.1121C135.369 34.2321 137.108 41.3206 137.108 49.3558C137.108 53.8907 136.492 58.3156 135.236 62.6084C133.981 66.9231 132.153 70.8857 129.709 74.518C127.264 78.1504 124.269 81.2984 120.702 83.9621C117.134 86.6259 113.082 88.5851 108.546 89.8179L108.524 89.7739Z" fill="#FFE9BA"/>
<path d="M157.346 167.132C155.408 167.462 153.515 167.594 151.643 167.462C149.771 167.352 147.921 167.066 146.115 166.603C149.969 166.603 153.537 166.031 156.84 164.908C160.804 163.323 164.151 160.77 166.882 157.247C169.613 153.725 170.956 149.763 170.956 145.338V98.5796C170.956 96.5323 170.934 94.9913 170.868 93.9126C170.802 92.8339 170.56 92.1294 170.097 91.7772C169.414 91.2048 168.908 91.2048 168.578 91.7772C167.675 92.7898 166.794 93.8465 165.935 94.9252C165.076 96.0039 164.261 97.1046 163.469 98.2494C161.663 100.737 159.505 102.894 156.994 104.7C156.091 105.272 155.541 105.47 155.386 105.294C155.232 105.118 155.409 104.589 155.981 103.687C157.126 102.102 158.381 100.407 159.813 98.5796C161.222 96.7744 162.698 95.0133 164.239 93.3182C165.759 91.6231 167.322 89.972 168.908 88.387C170.494 86.802 172.145 85.4371 173.841 84.3144C174.413 83.8521 175.096 83.3458 175.889 82.7734C176.682 82.201 177.43 82.0469 178.091 82.2671C178.884 82.3771 179.412 82.8835 179.699 83.786C179.985 84.6886 180.161 85.7453 180.205 86.9341C180.249 88.1228 180.249 89.3116 180.205 90.5004C180.139 91.6891 180.117 92.6358 180.117 93.2962V93.4723C180.8 92.7898 181.901 91.7992 183.442 90.5004C184.962 89.2015 186.592 87.9247 188.287 86.6699C189.983 85.4151 191.657 84.3144 193.308 83.3458C194.96 82.3771 196.281 81.8928 197.294 81.8928C198.087 81.8928 198.77 82.113 199.342 82.5753C200.598 83.4778 201.346 84.7547 201.633 86.4057C201.919 88.0568 201.941 89.884 201.721 91.9313C201.5 95.5636 200.553 98.6676 198.924 101.287C197.272 103.907 194.475 105.36 190.511 105.712C191.635 104.347 192.383 102.74 192.714 100.869C193.044 98.9979 193.11 97.5009 192.89 96.3561C192.56 95.1013 192.031 93.8906 191.37 92.7018C190.688 91.513 189.609 91.0287 188.133 91.2489C186.658 91.3589 185.16 92.0194 183.619 93.2081C182.077 94.3969 180.932 95.4976 180.139 96.5323V140.913C180.139 143.973 179.523 146.967 178.267 149.917C177.012 152.867 175.338 155.53 173.246 157.908C171.154 160.285 168.732 162.289 166.023 163.94C163.292 165.591 160.407 166.625 157.346 167.088V167.132Z" fill="#FFE9BA"/>
<path d="M260.409 123.257C258.713 125.635 256.599 128.277 254.111 131.161C251.622 134.044 248.892 136.752 245.941 139.24C242.99 141.727 239.907 143.841 236.67 145.536C233.432 147.231 230.173 148.156 226.892 148.266C224.271 148.266 221.937 147.759 219.823 146.725C217.731 145.712 215.859 144.325 214.207 142.564C212.555 140.803 211.168 138.8 210.045 136.532C208.9 134.265 207.953 131.953 207.16 129.554C205.002 131.359 203.13 133.714 201.545 136.62C199.959 139.504 198.704 142.256 197.801 144.875C198.021 142.608 198.395 140.407 198.902 138.249C199.408 136.092 200.179 133.934 201.192 131.777C201.985 129.862 203.24 127.858 204.936 125.833C205.156 125.613 205.332 125.371 205.442 125.151C205.553 124.931 205.729 124.688 205.949 124.468C205.839 123.896 205.751 123.412 205.685 123.015C205.619 122.619 205.553 122.135 205.42 121.562C204.958 117.93 205.31 114.496 206.433 111.282C207.556 108.046 209.164 104.986 211.19 102.102C213.216 99.218 215.617 96.5102 218.325 94.0226C221.056 91.535 223.765 89.3116 226.495 87.3964C227.508 86.6039 228.94 85.5912 230.746 84.3364C232.551 83.0816 234.313 82.4652 236.009 82.4652C237.132 82.4652 238.101 82.9275 238.894 83.8301C239.576 84.6226 240.083 85.6793 240.413 86.9781C240.744 88.2769 240.92 89.6198 240.92 90.9627C240.92 92.3055 240.766 93.6924 240.501 95.0353C240.215 96.4002 239.841 97.5889 239.4 98.6016C238.828 100.077 238.189 101.662 237.44 103.357C236.692 105.052 235.568 106.901 234.049 108.882C232.507 110.863 230.481 113.021 227.927 115.332C225.372 117.666 222.003 120.176 217.797 122.905C218.017 123.478 218.193 123.896 218.303 124.182C218.413 124.468 218.589 124.887 218.81 125.459C220.395 129.091 222.642 132.195 225.526 134.815C228.411 137.413 232.023 138.733 236.317 138.733C238.365 138.733 240.501 138.161 242.792 137.038C245.06 135.916 247.262 134.507 249.42 132.878C251.578 131.227 253.582 129.532 255.454 127.77C257.326 126.009 258.934 124.512 260.299 123.257H260.409ZM216.013 101.838C215 104.435 214.604 107.187 214.824 110.093C215.044 112.977 215.55 115.839 216.343 118.679C218.391 117.666 220.307 116.609 222.135 115.531C223.941 114.452 225.526 113.241 226.892 111.876C228.257 110.511 229.336 108.904 230.129 107.033C230.922 105.162 231.318 102.982 231.318 100.495C231.318 99.7023 231.23 98.7777 231.054 97.699C230.878 96.6203 230.635 95.6297 230.283 94.7271C229.953 93.8245 229.424 93.076 228.764 92.5257C228.081 91.9533 227.178 91.8432 226.033 92.1955C225.02 92.4156 223.963 92.8779 222.884 93.5603C221.805 94.2428 220.814 95.0353 219.911 95.9379C219.008 96.8405 218.215 97.8091 217.532 98.8217C216.85 99.8344 216.343 100.869 216.013 101.882V101.838Z" fill="#FFE9BA"/>
<path d="M262.282 146.901C262.172 147.011 261.753 147.319 261.004 147.825C260.256 148.332 259.903 148.31 259.903 147.737V113.725C259.903 111.458 259.925 109.278 259.991 107.187C260.057 105.096 260.696 103.026 261.951 100.979C262.964 99.0419 264.396 97.0166 266.202 94.8592C268.007 92.7018 270.033 90.6985 272.236 88.8273C274.438 86.9561 276.772 85.3931 279.217 84.1603C281.661 82.9055 283.995 82.223 286.286 82.1129H300.578C300.908 82.1129 300.974 82.3111 300.754 82.7073C300.534 83.1036 300.248 83.5659 299.895 84.0722C299.565 84.5785 299.212 85.0408 298.882 85.4371C298.552 85.8333 298.31 86.0975 298.199 86.2076L297.341 87.0661V137.06C297.913 136.488 298.464 135.894 299.036 135.277C299.609 134.661 300.159 134.066 300.732 133.494C301.987 131.799 303.088 129.95 304.057 127.969C305.026 125.987 305.907 123.918 306.7 121.761C306.48 123.456 306.127 125.327 305.687 127.374C305.224 129.421 304.63 131.425 303.903 133.406C303.154 135.387 302.252 137.259 301.172 139.02C300.093 140.781 298.816 142.234 297.341 143.356C295.403 145.294 293.134 146.703 290.536 147.605C289.853 147.825 289.237 148.001 288.664 148.112C288.091 148.222 287.805 148.112 287.805 147.781V117.182C284.524 121.254 281.177 125.349 277.763 129.421C274.372 133.494 271.024 137.589 267.721 141.661C266.818 142.564 265.937 143.467 265.078 144.391C264.22 145.294 263.295 146.152 262.282 146.945V146.901ZM269.417 99.284V135.828L287.783 113.395V91.6231C284.392 91.4029 280.912 91.4029 277.411 91.6231C276.508 91.6231 275.605 91.7332 274.68 91.9533C273.777 92.1734 272.874 92.4596 271.949 92.8118C271.839 92.9219 271.575 93.098 271.179 93.3182C270.782 93.5383 270.474 93.9346 270.254 94.5069C270.033 94.9692 269.835 95.6517 269.659 96.5543C269.483 97.4568 269.395 98.3594 269.395 99.284H269.417Z" fill="#FFE9BA"/>
<path d="M417.734 138.91C417.052 139.702 416.039 140.781 414.673 142.146C413.308 143.511 411.877 144.875 410.335 146.218C408.793 147.583 407.296 148.772 405.821 149.785C404.345 150.797 403.046 151.304 401.901 151.304C400.888 151.304 400.007 150.973 399.258 150.291C398.509 149.608 397.849 148.816 397.21 147.913C396.593 147.011 396.043 145.976 395.602 144.853C395.14 143.731 394.744 142.762 394.413 141.97C392.145 136.312 391.264 130.72 391.771 125.217C392.277 119.713 393.73 114.43 396.109 109.323C398.487 104.215 401.548 99.4381 405.292 94.9472C409.036 90.4784 413.066 86.5378 417.36 83.1256C420.884 80.2858 424.451 78.2825 428.085 77.0937C431.718 75.905 435.748 75.2005 440.153 74.9583C434.934 75.971 430.067 77.8422 425.53 80.572C426.653 81.8268 427.732 83.3678 428.767 85.239C429.802 87.1102 430.573 88.8493 431.146 90.4343C432.269 93.3842 432.996 96.4442 433.282 99.6142C433.568 102.784 433.48 105.91 433.018 108.97C432.225 114.76 430.441 120.131 427.666 125.129C424.892 130.126 421.566 134.705 417.712 138.91H417.734ZM403.09 130.412C403.31 131.205 403.706 132.349 404.279 133.802C404.852 135.277 405.534 136.686 406.327 138.051C407.12 139.416 408.023 140.495 409.058 141.287C410.071 142.08 411.15 142.146 412.295 141.463C413.66 140.671 414.982 139.262 416.281 137.214C417.58 135.167 418.747 132.9 419.76 130.412C420.773 127.925 421.632 125.459 422.315 123.015C422.998 120.572 423.438 118.612 423.68 117.16C424.363 111.612 423.856 106.219 422.161 101.001C421.588 99.5262 421.016 98.0732 420.465 96.6643C419.893 95.2554 419.166 93.9126 418.263 92.6798C417.47 91.425 416.677 90.5004 415.885 89.884C415.092 89.2676 414.079 89.2896 412.824 89.972C411.128 91.3369 409.652 92.9439 408.397 94.8151C407.142 96.6864 406.041 98.7337 405.072 100.935C404.103 103.137 403.332 105.382 402.781 107.649C402.209 109.917 401.813 112.074 401.592 114.122C400.91 119.669 401.416 125.107 403.112 130.434L403.09 130.412ZM416.017 122.575C415.444 123.037 414.827 123.456 414.145 123.852C413.462 124.248 412.779 124.16 412.097 123.588C411.524 123.125 411.04 122.597 410.643 121.981C410.247 121.364 409.873 120.77 409.542 120.198C408.749 118.833 407.847 117.358 406.812 115.773C406.129 114.518 405.512 113.967 404.94 114.078C404.257 114.54 404.147 114.364 404.609 113.571C405.072 112.669 405.71 111.788 406.569 110.93C407.428 110.071 408.287 109.323 409.212 108.64C409.784 108.068 410.379 107.627 410.996 107.275C411.612 106.945 412.273 107.055 412.956 107.605C413.176 107.826 413.55 108.288 414.057 108.97C414.563 109.653 415.07 110.423 415.598 111.26C416.105 112.118 416.589 112.933 417.052 113.725C417.514 114.518 417.845 115.09 418.065 115.42C418.968 116.675 419.65 117.182 420.113 116.961C420.795 116.499 420.972 116.675 420.619 117.468C420.157 118.48 419.474 119.405 418.571 120.198C417.668 120.99 416.809 121.783 416.017 122.575Z" fill="#FFE9BA"/>
<path d="M454.291 139.922C454.071 140.252 453.41 140.913 452.331 141.881C451.252 142.85 450.063 143.819 448.763 144.765C447.464 145.734 446.209 146.571 445.02 147.319C443.83 148.067 442.949 148.42 442.377 148.42C441.584 148.42 440.967 147.957 440.505 147.055C440.043 146.152 439.756 145.074 439.646 143.819C439.536 142.564 439.47 141.287 439.47 139.988V96.202C439.47 94.2648 439.206 93.2742 438.699 93.2301C438.193 93.1641 437.818 93.2521 437.598 93.4943C436.915 94.1767 436.101 94.9032 435.132 95.6957C434.163 96.4882 433.524 96.7744 433.172 96.5543C432.951 96.3341 432.996 95.9599 433.348 95.4536C433.678 94.9472 434.119 94.3969 434.625 93.8465C435.132 93.2742 435.638 92.7458 436.145 92.2395C436.651 91.7332 436.959 91.425 437.07 91.3149C437.4 90.9847 438.039 90.3243 438.941 89.3556C439.844 88.387 440.879 87.4624 442.003 86.5598C443.126 85.6572 444.249 84.9528 445.328 84.4244C446.407 83.9181 447.332 83.9401 448.125 84.5125C448.587 84.8427 448.785 85.3931 448.719 86.1195C448.653 86.868 448.631 87.5064 448.631 88.0788V131.601C448.631 132.173 448.697 133.252 448.807 134.837C448.917 136.422 449.27 137.501 449.82 138.073C452.661 136.136 454.951 133.692 456.713 130.676C458.475 127.682 459.906 124.644 461.051 121.584C460.831 124.865 460.171 128.101 459.092 131.271C458.012 134.441 456.405 137.325 454.247 139.944L454.291 139.922ZM448.345 79.5593C447.772 80.0216 447.178 80.4399 446.561 80.8361C445.944 81.2324 445.284 81.1443 444.601 80.572C444.029 80.1097 443.544 79.5813 443.148 78.9649C442.751 78.3485 442.377 77.7542 442.047 77.1818L439.492 73.1092C438.699 71.8543 438.083 71.304 437.62 71.4141C437.048 71.6342 436.871 71.4801 437.114 70.9077C437.686 70.0052 438.391 69.1246 439.25 68.266C440.109 67.4075 440.923 66.659 441.716 65.9766C442.289 65.5143 442.839 65.096 443.412 64.6997C443.985 64.3035 444.601 64.3915 445.284 64.9639C445.856 65.5363 446.297 66.1086 446.649 66.659C446.979 67.2314 447.332 67.8037 447.662 68.3541C448.125 69.1466 448.565 69.8951 449.028 70.5555C449.49 71.2379 449.93 71.9204 450.393 72.6028C451.296 73.9677 451.934 74.474 452.265 74.1438C452.837 73.9237 452.991 74.0778 452.771 74.6501C452.309 75.5527 451.67 76.4333 450.811 77.2919C449.952 78.1504 449.138 78.8989 448.345 79.5813V79.5593Z" fill="#FFE9BA"/>
<path d="M449.005 170.698C447.067 171.028 445.129 171.16 443.125 171.028C441.143 170.918 439.183 170.632 437.268 170.17C441.474 170.17 445.195 169.553 448.499 168.299C452.573 166.714 456.074 164.05 458.959 160.307C461.844 156.565 463.298 152.426 463.298 147.891V92.5477C463.298 90.8966 463.011 89.7959 462.439 89.2235C461.976 88.8933 461.646 88.6952 461.426 88.6291C461.205 88.5631 460.919 88.7832 460.567 89.2235C459.664 90.3683 458.783 91.469 457.924 92.5477C457.065 93.6264 456.206 94.7271 455.282 95.8718C454.379 97.1266 453.344 98.3374 452.22 99.5262C451.097 100.715 449.908 101.772 448.653 102.674C447.75 103.247 447.177 103.445 446.957 103.269C446.737 103.092 446.957 102.564 447.64 101.662C450.371 98.0292 453.233 94.4629 456.228 90.9406C459.245 87.4184 462.549 84.2483 466.182 81.4085C466.755 80.9462 467.46 80.4399 468.319 79.8895C469.177 79.3171 469.992 79.097 470.785 79.2071C471.578 79.3171 472.106 79.8675 472.393 80.8141C472.679 81.7827 472.855 82.9055 472.899 84.2043C472.965 85.5031 472.965 86.7579 472.899 87.9467C472.833 89.1355 472.811 90.0821 472.811 90.7425V104.854C476.312 99.5262 480.122 94.7711 484.196 90.5664C484.659 90.1041 485.363 89.3776 486.332 88.365C487.301 87.3523 488.336 86.3177 489.482 85.305C490.605 84.2924 491.772 83.4998 492.961 82.9275C494.15 82.3551 495.141 82.245 495.934 82.5973C496.507 82.9275 496.815 83.4998 496.859 84.2924C496.925 85.0849 496.947 85.7673 496.947 86.3397V129.862C496.947 130.544 496.969 131.711 497.035 133.34C497.101 134.991 497.409 136.092 497.96 136.664C501.021 134.507 503.421 131.997 505.183 129.091C506.945 126.207 508.442 122.993 509.698 119.493C509.125 126.626 506.813 133.032 502.717 138.711C502.386 139.174 501.638 139.922 500.515 141.001C499.369 142.08 498.136 143.158 496.771 144.237C495.406 145.316 494.106 146.24 492.851 147.033C491.596 147.825 490.693 148.222 490.12 148.222C489.217 148.222 488.557 147.649 488.16 146.526C487.764 145.404 487.5 144.061 487.39 142.542C487.279 141.023 487.235 139.482 487.301 137.963C487.345 136.422 487.39 135.321 487.39 134.639V99.6142C487.39 98.7117 487.412 97.5229 487.478 96.0479C487.544 94.573 487.456 93.5603 487.213 92.988C487.213 92.8779 487.147 92.7238 487.037 92.5697C486.927 92.3936 486.729 92.3055 486.443 92.3055C486.156 92.3055 485.826 92.4156 485.43 92.6357C485.033 92.8559 484.549 93.4282 483.976 94.3308C481.928 97.2807 479.946 100.165 478.03 103.004C476.092 105.844 474.353 108.838 472.767 112.008V143.467C472.767 145.734 472.393 147.935 471.666 150.093C470.917 152.25 469.992 154.275 468.869 156.213C464.443 164.27 457.814 169.069 448.961 170.654L449.005 170.698Z" fill="#FFE9BA"/>
<path d="M527.602 141.111C527.272 141.573 526.523 142.322 525.4 143.4C524.255 144.479 523.043 145.58 521.744 146.725C520.445 147.869 519.167 148.816 517.912 149.608C516.657 150.401 515.754 150.797 515.181 150.797C514.279 150.797 513.596 150.225 513.133 149.102C512.671 147.979 512.407 146.637 512.275 145.118C512.164 143.577 512.12 142.08 512.186 140.605C512.253 139.13 512.275 138.007 512.275 137.215V82.135C510.469 81.3425 508.641 80.7261 506.835 80.2638C505.029 79.8015 503.202 79.6914 501.396 79.9336C500.14 80.0436 498.841 80.3518 497.476 80.8582C496.11 81.3645 494.921 82.0249 493.908 82.8174C494.811 81.5626 495.67 80.572 496.463 79.8455C497.256 79.119 497.938 78.4586 498.511 77.8862C502.937 74.2539 507.518 72.6248 512.297 72.9551V47.6167C512.297 45.3493 512.208 43.346 512.032 41.5848C511.856 39.8237 511.548 38.2387 511.107 36.8298C510.645 35.4208 510.028 34.078 509.236 32.8452C508.443 31.5904 507.474 30.2915 506.351 28.9267C503.62 25.9768 500.625 23.9074 497.344 22.7187C494.062 21.5299 490.429 20.9355 486.465 20.9355C488.403 20.4732 490.319 20.209 492.257 20.077C494.195 19.9669 496.177 20.077 498.203 20.4072C502.519 20.9795 506.417 22.5646 509.94 25.1622C513.442 27.7819 516.239 30.996 518.265 34.8485C519.057 36.1033 519.85 37.7103 520.643 39.6916C521.436 41.6729 521.832 43.3019 521.832 44.5347V76.1691C523.528 77.0717 525.378 77.9743 527.36 78.8989C529.342 79.8015 531.235 80.1977 533.063 80.0877C533.856 80.0877 534.803 79.8675 535.86 79.4052C536.939 78.9429 538.327 78.0403 540.022 76.6755C539.34 77.6881 538.481 78.8108 537.468 79.9996C536.455 81.1884 535.332 82.2891 534.142 83.3237C532.953 84.3364 531.698 85.1949 530.399 85.8774C529.099 86.5598 527.822 86.89 526.567 86.89C525.664 87.0001 524.827 87.0001 524.1 86.89C523.374 86.78 522.603 86.6039 521.81 86.3837V130.5C521.81 131.469 521.832 132.525 521.898 133.648C521.964 134.793 522.074 135.828 522.25 136.796C522.427 137.765 522.669 138.469 523.021 138.932C525.972 137.126 528.373 134.617 530.244 131.447C532.116 128.277 533.614 125.107 534.759 121.937C534.297 125.327 533.57 128.739 532.557 132.129C531.544 135.519 529.892 138.535 527.624 141.133L527.602 141.111Z" fill="#FFE9BA"/>
<path d="M346.163 152.712C342.859 154.43 338.763 154.253 335.394 152.712C332.024 151.171 329.316 148.332 327.422 145.162C325.242 141.529 324.008 137.501 323.194 133.406C322.181 128.365 321.388 123.918 320.815 120.065C319.67 120.968 318.547 121.761 317.424 122.443V142.674C317.424 143.246 316.939 144.083 315.97 145.228C315.002 146.35 313.967 147.429 312.821 148.464C311.676 149.476 310.641 150.313 309.672 150.929C308.703 151.546 308.219 151.634 308.219 151.194V51.0069C308.219 43.0818 306.039 36.7637 301.678 32.0527C297.318 27.3416 291.042 24.9861 282.894 24.9861C284.831 24.5238 286.747 24.2597 288.685 24.1276C290.623 24.0175 292.539 24.1276 294.477 24.4578C297.318 24.788 300.115 25.7566 302.889 27.3416C305.664 28.9267 308.131 30.8639 310.289 33.1314C312.447 35.3988 314.165 37.9305 315.486 40.7043C316.785 43.478 317.446 46.3399 317.446 49.2898V97.743C319.604 95.9379 321.784 94.1988 323.986 92.5477C326.189 90.8966 328.435 89.2896 330.703 87.7046C331.716 86.9121 332.883 86.0975 334.183 85.239C335.482 84.3804 336.825 84.0282 338.169 84.1383C339.644 84.3584 340.635 85.1069 341.142 86.3397C341.648 87.5945 342.022 88.8273 342.243 90.0821C342.815 94.0446 342.155 97.5009 340.283 100.451C338.411 103.401 336.165 106.285 333.566 109.124C332.993 109.697 332.465 110.203 331.958 110.643C331.452 111.106 330.901 111.612 330.351 112.184C330.923 115.927 331.672 120.242 332.641 125.107C334.733 135.674 336.187 146.482 346.207 152.69L346.163 152.712ZM323.854 96.07C322.951 96.7524 321.916 97.4789 320.793 98.2714C319.648 99.0639 318.525 99.8564 317.402 100.649V118.502C319.67 117.138 322.115 115.707 324.713 114.166C327.312 112.625 329.47 110.841 331.166 108.816C332.421 107.121 333.126 105.052 333.302 102.608C333.478 100.165 333.104 97.9852 332.201 96.07C331.408 94.4849 330.395 93.6924 329.14 93.6924C328.237 93.6924 327.334 93.9566 326.409 94.4629C325.506 94.9692 324.647 95.5196 323.854 96.07Z" fill="#FFE9BA"/>
<path d="M333.94 191.524C335.592 191.435 337.177 191.237 338.653 190.951C338.719 190.863 338.807 190.775 338.873 190.687C339.622 189.674 340.415 188.816 341.251 188.067C341.824 187.561 342.551 187.297 343.299 187.297H343.718C344.07 187.297 344.4 187.363 344.731 187.473C345.259 187.649 345.766 187.891 346.272 188.111C347.682 187.275 349.003 186.306 350.17 185.161H333.874V191.546L333.94 191.524Z" fill="#FFE9BA"/>
<path d="M374.857 134.661C377.698 131.931 380.12 129.113 382.168 126.163C384.216 123.213 385.295 120.506 385.405 117.996V103.114C385.405 99.8784 385.339 96.6203 385.229 93.3402C385.229 92.3275 385.207 91.0727 385.141 89.5978C385.075 88.1228 384.855 86.802 384.458 85.6132C384.062 84.4244 383.445 83.4778 382.587 82.8174C381.728 82.135 380.45 82.0909 378.755 82.6413C377.61 82.9715 376.134 83.786 374.328 85.0188C372.522 86.2736 370.651 87.5945 368.713 89.0034C366.775 90.4123 364.947 91.8652 363.185 93.3402C361.423 94.8151 360.036 96.0039 359.023 96.9065C359.023 95.2114 359.001 93.054 358.935 90.4343C358.869 87.8366 358.847 85.6792 358.847 83.9842C358.737 83.0816 358.627 82.0469 358.517 80.9242C358.406 79.8014 357.768 79.2291 356.645 79.2291C355.5 79.119 354.376 79.5373 353.253 80.5059C352.108 81.4745 351.205 82.245 350.523 82.7954C347.351 85.5251 344.4 88.475 341.67 91.6451C338.939 94.8151 336.407 98.0512 334.006 101.331C333.323 102.234 333.103 102.784 333.323 102.938C333.544 103.114 334.116 102.916 335.019 102.344C336.274 101.441 337.464 100.407 338.587 99.284C339.732 98.1613 340.745 96.9725 341.648 95.7177C341.978 95.1453 342.463 94.4629 343.101 93.6704C343.718 92.8779 344.312 92.1514 344.885 91.469C345.568 90.5664 346.25 89.7078 346.933 88.9153C347.506 88.453 348.056 88.5851 348.629 89.2455C349.091 89.7078 349.311 90.9406 349.311 92.988V158.788C349.311 162.068 349.113 165.128 348.717 167.968C348.475 169.729 348.012 171.358 347.417 172.833C348.981 173.406 350.501 174.132 351.888 175.057C353.341 176.025 354.42 176.818 355.169 177.522C355.213 177.566 355.257 177.611 355.301 177.655C357.636 172.503 358.825 166.009 358.825 158.128V147.407C360.763 146.152 363.185 144.413 366.136 142.146C369.087 139.878 371.972 137.391 374.813 134.661H374.857ZM358.869 143.334C358.979 136.092 359.067 128.849 359.133 121.65C359.199 114.452 359.155 107.165 359.045 99.8124C359.155 99.8124 359.331 99.7023 359.552 99.4821C360.454 98.7997 361.357 98.1173 362.282 97.4348C363.185 96.7524 364.088 96.0699 365.013 95.3875C365.916 94.8151 366.973 94.0887 368.162 93.1861C369.351 92.2835 370.563 91.8212 371.818 91.8212C372.831 91.8212 373.69 92.2175 374.372 93.01C374.835 93.5823 375.165 94.1767 375.385 94.7931C375.606 95.4095 375.76 96.2681 375.804 97.3468C375.87 98.4255 375.892 99.8784 375.892 101.684V121.738C375.892 122.421 375.914 123.125 375.98 123.874C376.046 124.622 376.068 125.327 376.068 126.009C376.068 127.484 375.495 129.047 374.372 130.676C373.227 132.327 371.796 133.912 370.034 135.431C368.272 136.972 366.4 138.403 364.418 139.768C362.436 141.133 360.587 142.322 358.891 143.334H358.869Z" fill="#FFE9BA"/>
<path d="M314.231 182.85C315.64 184.589 317.27 186.13 319.141 187.429V179.262C317.732 178.227 316.455 176.884 315.332 175.123C314.429 173.758 313.834 172.239 313.548 170.522C313.262 168.827 313.416 167.176 313.966 165.591C314.429 164.006 315.266 162.421 316.521 160.836C317.886 159.251 319.252 157.952 320.595 156.917C319.692 157.379 318.833 157.842 318.04 158.37C317.248 158.876 316.455 159.427 315.662 159.977C313.966 161.562 312.667 163.147 311.742 164.732C310.839 166.317 310.267 168.299 310.046 170.676C309.936 172.613 310.223 174.749 310.905 177.148C311.698 179.196 312.799 181.089 314.231 182.85Z" fill="#FFE9BA"/>
<path d="M184.742 213.956C181.945 211.49 179.324 208.871 176.946 206.097C174.546 203.323 172.211 200.461 169.943 197.511V211.799C169.921 212.085 169.833 212.371 169.701 212.657C169.569 212.943 169.415 213.163 169.238 213.34C169.062 213.516 168.886 213.626 168.732 213.714C168.578 213.802 168.402 213.846 168.203 213.89H163.138C162.918 213.868 162.72 213.78 162.544 213.648C162.368 213.516 162.191 213.384 161.993 213.208C161.795 213.031 161.641 212.833 161.531 212.591C161.421 212.349 161.354 212.107 161.354 211.887V177.412C161.377 177.104 161.465 176.796 161.619 176.51C161.751 176.224 161.927 175.982 162.103 175.761C162.279 175.541 162.5 175.409 162.72 175.321C162.94 175.233 163.16 175.233 163.358 175.277C165.032 176.07 166.53 176.884 167.851 177.721C169.172 178.557 170.604 179.262 172.123 179.834H180.712C181.505 179.218 182.165 178.491 182.694 177.655C183.222 176.84 183.883 176.136 184.676 175.563L185.138 175.519C186.68 176.224 188.089 177.082 189.366 178.073C190.666 179.063 191.635 179.878 192.273 180.538C192.934 181.199 193.308 181.617 193.418 181.793C193.529 181.969 193.573 182.19 193.551 182.41C193.176 183.07 192.736 183.708 192.229 184.325C191.723 184.941 191.458 185.668 191.414 186.46L191.723 187.825C191.789 188.904 191.745 189.784 191.635 190.511C191.503 191.854 191.194 193.175 190.754 194.517C190.313 195.86 189.587 197.005 188.574 197.952C188.177 198.348 187.737 198.656 187.23 198.876C186.724 199.096 186.195 199.229 185.645 199.317H184.411C183.795 199.295 183.2 199.162 182.628 198.92C182.055 198.678 181.549 198.326 181.086 197.886L180.536 197.203H171.397C174.92 199.735 178.51 202.09 182.187 204.292C185.865 206.493 189.675 208.474 193.617 210.192L193.705 210.456C193.507 210.676 193.286 210.808 193.022 210.83C192.758 210.852 192.494 210.83 192.163 210.786L190.159 210.874C189.477 211.006 188.816 211.182 188.155 211.38C187.495 211.578 187.01 211.887 186.702 212.305C186.393 212.723 186.151 213.031 185.953 213.274C185.777 213.516 185.557 213.714 185.336 213.89L184.742 213.978V213.956ZM181.923 194.561C182.187 194.363 182.407 194.121 182.606 193.857C182.804 193.593 183.002 193.241 183.222 192.8C183.442 192.36 183.597 191.854 183.707 191.237C183.817 190.621 183.927 190.027 184.015 189.366C184.015 188.287 184.015 187.517 183.971 187.033C183.839 186.24 183.641 185.448 183.42 184.655C183.2 183.863 182.804 183.158 182.231 182.564C182.033 182.388 181.835 182.256 181.615 182.167C181.394 182.079 181.152 181.991 180.866 181.925H171.727C171.352 182.101 171 182.322 170.692 182.63C170.361 182.938 170.119 183.268 169.943 183.664V194.98H180.954L181.923 194.561Z" fill="#E2AD4F"/>
<path d="M216.85 213.912C214.912 213.692 213.106 213.141 211.411 212.261C209.715 211.38 208.152 210.17 206.742 208.607C205.333 207.044 204.21 205.216 203.417 203.125C202.624 201.034 202.14 199.118 201.985 197.357C201.831 195.596 201.743 194.099 201.743 192.778C201.743 191.457 201.831 190.225 201.985 189.036C202.14 187.847 202.646 186.262 203.527 184.259C204.386 182.256 205.641 180.516 207.293 179.041C208.504 177.985 209.869 177.148 211.323 176.532C212.776 175.915 214.075 175.519 215.155 175.387C216.234 175.255 217.114 175.189 217.841 175.189C218.546 175.189 219.493 175.277 220.638 175.409C221.805 175.541 223.237 175.982 224.932 176.774C226.628 177.567 228.147 178.645 229.491 180.054C230.812 181.463 231.847 183.092 232.552 184.963C233.257 186.834 233.675 188.53 233.829 190.071C233.983 191.612 234.027 192.822 234.027 193.725C234.027 194.628 233.917 195.992 233.719 197.798C233.543 199.603 232.948 201.65 231.979 203.918C231.01 206.185 229.733 208.012 228.192 209.421C226.65 210.83 225.108 211.865 223.589 212.547C222.069 213.23 220.902 213.648 220.065 213.78C219.229 213.912 218.524 214 217.929 214C217.335 214 216.982 213.978 216.85 213.912ZM222.157 210.258V178.931C222.091 178.711 221.981 178.535 221.783 178.403C221.585 178.271 221.365 178.139 221.1 177.985C220.836 177.831 220.506 177.721 220.109 177.633C219.691 177.567 219.229 177.523 218.722 177.478H216.85C216.19 177.5 215.617 177.589 215.11 177.743C214.604 177.897 214.142 178.161 213.701 178.601L213.481 179.063V210.236C213.569 210.5 213.811 210.742 214.23 211.028C214.648 211.292 215.155 211.49 215.793 211.578C216.432 211.667 217.07 211.733 217.775 211.733C218.48 211.733 219.03 211.689 219.471 211.622C219.911 211.556 220.374 211.446 220.88 211.292C221.387 211.16 221.805 210.808 222.18 210.28L222.157 210.258Z" fill="#E2AD4F"/>
<path d="M243.739 214C243.519 213.912 243.298 213.824 243.122 213.736C242.946 213.626 242.77 213.494 242.616 213.34C242.461 213.185 242.307 212.965 242.197 212.723C242.065 212.481 241.999 212.239 241.999 211.975V177.456C242.065 177.148 242.153 176.84 242.285 176.532C242.417 176.246 242.572 176.004 242.748 175.805C242.924 175.629 243.122 175.475 243.32 175.343C243.519 175.211 243.739 175.189 243.959 175.277C245.633 175.982 247.24 176.796 248.804 177.677C250.367 178.579 251.843 179.526 253.274 180.538L253.362 181.001C252.9 181.595 252.305 182.101 251.579 182.542C250.852 182.96 250.411 183.488 250.257 184.105V210.39H262.766V177.28C262.788 176.994 262.876 176.708 263.052 176.4C263.228 176.092 263.382 175.871 263.603 175.695C263.823 175.519 263.999 175.387 264.153 175.299C264.307 175.211 264.483 175.189 264.682 175.299C266.355 176.004 267.963 176.818 269.526 177.699C271.09 178.601 272.61 179.548 274.129 180.56V180.891L273.578 181.573C273.16 181.969 272.676 182.344 272.147 182.696C271.619 183.048 271.244 183.466 271.024 183.951V212.107C270.958 212.327 270.892 212.569 270.782 212.811C270.672 213.053 270.561 213.252 270.429 213.406C270.297 213.56 270.121 213.692 269.945 213.78C269.769 213.868 269.57 213.956 269.372 214.044H264.483C264.087 214.066 263.735 213.934 263.426 213.626C263.118 213.318 262.92 212.965 262.832 212.569H250.279C250.257 212.899 250.081 213.23 249.751 213.516C249.42 213.802 249.068 214 248.672 214.044H243.783L243.739 214Z" fill="#E2AD4F"/>
<path d="M283.841 213.912C283.576 213.89 283.378 213.802 283.202 213.67C283.026 213.538 282.85 213.384 282.651 213.23C282.453 213.053 282.299 212.855 282.189 212.613C282.079 212.371 282.013 212.151 282.013 211.909V177.346C282.035 177.038 282.145 176.73 282.321 176.422C282.497 176.114 282.673 175.871 282.85 175.673C283.026 175.475 283.224 175.321 283.422 175.255C283.62 175.167 283.819 175.167 284.017 175.211C285.558 175.783 287.012 176.422 288.399 177.148C289.786 177.875 291.13 178.667 292.429 179.548L292.561 179.922C292.363 180.582 292.055 181.199 291.614 181.771C291.174 182.344 290.844 182.982 290.623 183.664V209.553H301.436C302.163 208.937 302.801 208.21 303.33 207.396C303.858 206.581 304.541 205.899 305.4 205.348H305.995C307.47 205.921 308.879 206.625 310.223 207.484C311.566 208.342 312.557 209.069 313.196 209.663C313.834 210.236 314.187 210.588 314.231 210.676C314.297 210.764 314.297 210.918 314.275 211.072L313.768 211.49L312.667 211.755H290.689C290.623 212.041 290.557 212.327 290.447 212.613C290.337 212.899 290.183 213.141 289.985 213.318C289.764 213.494 289.588 213.626 289.456 213.714C289.324 213.802 289.126 213.846 288.906 213.89H283.885L283.841 213.912Z" fill="#E2AD4F"/>
<path d="M324.052 213.912C323.832 213.89 323.634 213.802 323.458 213.67C323.282 213.538 323.105 213.384 322.907 213.23C322.709 213.053 322.555 212.855 322.445 212.613C322.335 212.371 322.269 212.151 322.269 211.909V177.478C322.291 177.17 322.379 176.862 322.533 176.576C322.687 176.29 322.841 176.048 323.017 175.827C323.193 175.607 323.392 175.475 323.612 175.387C323.832 175.299 324.052 175.299 324.273 175.343C325.748 176.048 327.179 176.84 328.589 177.721C329.998 178.601 331.452 179.328 332.993 179.9H341.45C342.507 178.821 343.233 177.985 343.674 177.368C344.114 176.752 344.643 176.202 345.259 175.695L345.986 175.607C347.484 176.114 348.893 176.796 350.192 177.677C351.492 178.535 352.461 179.262 353.099 179.856C353.738 180.428 354.112 180.781 354.2 180.891C354.288 181.001 354.333 181.155 354.31 181.309L353.892 181.815L352.989 182.035H332.575C332.245 182.212 331.892 182.432 331.584 182.74C331.254 183.026 330.989 183.378 330.791 183.731V194.65H339.38C340.084 194.055 340.745 193.351 341.362 192.514C341.978 191.7 342.617 190.973 343.3 190.379H343.718C345.281 190.929 346.735 191.634 348.078 192.514C349.422 193.395 350.413 194.121 351.051 194.716C351.69 195.31 352.042 195.64 352.108 195.75C352.174 195.86 352.196 195.992 352.152 196.102C352.108 196.235 352.042 196.323 351.954 196.411C351.866 196.477 351.756 196.543 351.624 196.609L350.941 196.829H330.791V209.619H341.56C342.287 209.003 342.947 208.298 343.52 207.506C344.092 206.735 344.731 206.031 345.48 205.392H346.118C347.572 205.965 348.959 206.669 350.28 207.55C351.602 208.43 352.593 209.135 353.231 209.707C353.87 210.28 354.222 210.61 354.266 210.698C354.333 210.786 354.333 210.94 354.31 211.094L353.804 211.512L352.703 211.777H330.835C330.769 212.063 330.703 212.349 330.593 212.635C330.483 212.921 330.329 213.163 330.13 213.34C329.91 213.516 329.734 213.648 329.602 213.736C329.47 213.824 329.272 213.868 329.051 213.912H324.03H324.052Z" fill="#E2AD4F"/>
<path d="M374.879 213.868C374.548 213.802 374.262 213.714 374.064 213.56C373.866 213.406 373.712 213.252 373.58 213.119C373.447 212.987 373.359 212.811 373.271 212.613C373.205 212.415 373.139 212.151 373.117 211.799V181.661H362.943C362.635 181.573 362.48 181.375 362.48 181.067V180.098C362.502 179.812 362.657 179.636 362.943 179.548H381.794C382.873 178.469 383.622 177.633 384.062 177.016C384.502 176.4 385.053 175.827 385.736 175.255L386.33 175.211C387.784 175.783 389.149 176.488 390.448 177.324C391.748 178.161 392.739 178.865 393.399 179.46C394.06 180.032 394.456 180.384 394.566 180.516C394.677 180.649 394.721 180.803 394.699 181.001C394.412 181.309 394.192 181.507 393.994 181.551C393.818 181.617 393.597 181.639 393.377 181.683H383.93C383.599 181.815 383.247 182.013 382.895 182.256C382.542 182.498 382.168 183.004 381.772 183.775V212.085C381.75 212.305 381.662 212.547 381.529 212.767C381.397 212.987 381.265 213.185 381.111 213.362C380.957 213.538 380.781 213.648 380.627 213.714C380.472 213.78 380.274 213.846 380.076 213.912H374.835L374.879 213.868Z" fill="#E2AD4F"/>
<path d="M415.378 213.868C415.047 213.802 414.761 213.714 414.563 213.56C414.365 213.406 414.211 213.252 414.079 213.119C413.946 212.987 413.858 212.811 413.77 212.613C413.704 212.415 413.638 212.151 413.616 211.799V181.661H403.442C403.134 181.573 402.979 181.375 402.979 181.067V180.098C403.002 179.812 403.156 179.636 403.442 179.548H422.293C423.372 178.469 424.121 177.633 424.561 177.016C425.001 176.4 425.552 175.827 426.235 175.255L426.829 175.211C428.283 175.783 429.648 176.488 430.947 177.324C432.247 178.161 433.238 178.865 433.898 179.46C434.559 180.054 434.955 180.384 435.065 180.516C435.176 180.649 435.22 180.803 435.198 181.001C434.911 181.309 434.669 181.507 434.493 181.551C434.317 181.617 434.096 181.639 433.876 181.683H424.429C424.099 181.815 423.746 182.013 423.394 182.256C423.041 182.498 422.667 183.004 422.271 183.775V212.085C422.249 212.305 422.161 212.547 422.028 212.767C421.896 212.987 421.764 213.185 421.61 213.362C421.456 213.538 421.28 213.648 421.126 213.714C420.971 213.78 420.773 213.846 420.575 213.912H415.334L415.378 213.868Z" fill="#E2AD4F"/>
<path d="M445.195 213.912C444.975 213.89 444.776 213.802 444.6 213.67C444.424 213.538 444.248 213.384 444.05 213.23C443.852 213.053 443.697 212.855 443.587 212.613C443.477 212.371 443.411 212.151 443.411 211.909V177.478C443.433 177.17 443.521 176.862 443.675 176.576C443.83 176.29 443.984 176.048 444.16 175.827C444.336 175.607 444.534 175.475 444.754 175.387C444.975 175.299 445.195 175.299 445.415 175.343C446.891 176.048 448.322 176.84 449.731 177.721C451.141 178.601 452.594 179.328 454.136 179.9H462.592C463.649 178.821 464.376 177.985 464.816 177.368C465.257 176.752 465.785 176.202 466.402 175.695L467.129 175.607C468.626 176.114 470.036 176.796 471.335 177.677C472.634 178.535 473.603 179.262 474.242 179.856C474.88 180.428 475.255 180.781 475.343 180.891C475.431 181.001 475.475 181.155 475.453 181.309L475.035 181.815L474.132 182.035H453.717C453.365 182.212 453.035 182.432 452.726 182.74C452.396 183.026 452.132 183.378 451.934 183.731V194.65H460.522C461.227 194.055 461.888 193.351 462.504 192.514C463.121 191.7 463.759 190.973 464.442 190.379H464.86C466.424 190.929 467.878 191.634 469.221 192.514C470.564 193.395 471.555 194.121 472.194 194.716C472.832 195.288 473.185 195.64 473.251 195.75C473.317 195.86 473.339 195.992 473.295 196.102C473.251 196.235 473.185 196.323 473.097 196.411C473.009 196.477 472.898 196.543 472.766 196.609L472.084 196.829H451.934V209.619H462.702C463.429 209.003 464.09 208.298 464.662 207.506C465.235 206.735 465.873 206.031 466.622 205.392H467.261C468.714 205.965 470.102 206.669 471.423 207.55C472.744 208.408 473.735 209.135 474.374 209.707C475.013 210.28 475.365 210.61 475.409 210.698C475.475 210.786 475.475 210.94 475.453 211.094L474.947 211.512L473.845 211.777H451.978C451.912 212.063 451.846 212.349 451.735 212.635C451.625 212.921 451.471 213.163 451.273 213.34C451.053 213.516 450.877 213.648 450.744 213.736C450.612 213.824 450.414 213.868 450.194 213.912H445.173H445.195Z" fill="#E2AD4F"/>
</g>
<defs>
<clipPath id="clip0_568_667">
<rect width="540" height="214" fill="white"/>
</clipPath>
</defs>
</svg>
