<svg width="200" height="51" viewBox="0 0 200 51" fill="none" xmlns="http://www.w3.org/2000/svg">
<path d="M5.76537 13.8209C6.30029 14.6774 8.30458 14.8806 10.1396 14.8738C9.80102 14.5759 9.43199 14.2847 9.07312 14.0105C8.79888 13.7938 8.54157 13.6008 8.28088 13.4078C7.21103 12.602 6.09377 11.7692 5.17965 10.4115L5.06454 10.2456C4.70557 9.71134 4.49856 9.08953 4.46565 8.44668C4.43273 7.80383 4.57514 7.16412 4.87766 6.59595C5.18017 6.02777 5.63142 5.5525 6.18315 5.22094C6.73487 4.88937 7.36634 4.71399 8.01003 4.71354C8.27072 4.71454 8.53058 4.74291 8.78534 4.79818C10.7185 5.23493 12.4452 6.29463 14.226 8.1364C14.6594 8.53929 15.0521 8.96249 15.4279 9.38231C15.2214 7.46944 14.7914 5.218 13.8942 4.67969C12.997 4.14137 12.5163 5.22477 12.5163 5.22477C12.5163 5.22477 12.1032 1.9915 10.7524 1.70034C9.40152 1.40918 9.56065 3.16631 9.56065 3.16631C9.56065 3.16631 7.90169 -0.0567938 6.25289 0.000761758C4.6041 0.0583173 5.05777 2.24543 5.05777 2.24543C5.05777 2.24543 1.71617 -0.486769 0.34499 0.853937C-1.02619 2.19464 2.1326 5.12659 2.1326 5.12659C2.1326 5.12659 -0.11884 4.92007 0.0131994 6.56548C0.145239 8.21089 3.79494 9.68025 3.79494 9.68025C3.79494 9.68025 2.02087 9.72764 2.461 11.0345C2.90113 12.3413 6.09716 12.7036 6.09716 12.7036C6.09716 12.7036 5.2169 12.944 5.76537 13.8209Z" fill="#921C1D"/>
<path d="M37.139 34.6014C38.2497 34.6014 39.15 33.2842 39.15 31.6593C39.15 30.0344 38.2497 28.7172 37.139 28.7172C36.0283 28.7172 35.1279 30.0344 35.1279 31.6593C35.1279 33.2842 36.0283 34.6014 37.139 34.6014Z" fill="#921C1D"/>
<path d="M44.4418 6.36459C44.4418 6.36459 47.3974 3.62901 46.1109 2.36618C44.8243 1.10334 41.6859 3.67641 41.6859 3.67641C41.6859 3.67641 42.1091 1.61796 40.5618 1.56717C39.0146 1.51639 37.4572 4.53975 37.4572 4.53975C37.4572 4.53975 37.6028 2.87741 36.3332 3.15164C35.0636 3.42588 34.6776 6.45601 34.6776 6.45601C34.6776 6.45601 34.2172 5.44032 33.3843 5.94478C32.5515 6.44923 32.1587 8.45014 31.959 10.214C32.2975 9.8484 32.6361 9.48275 33.0085 9.13065C34.7013 7.38705 36.3298 6.38491 38.1581 5.97525C38.4045 5.91851 38.6567 5.89011 38.9097 5.89061C39.5292 5.88991 40.1372 6.05753 40.6689 6.37556C41.2005 6.69358 41.6358 7.15006 41.9282 7.69624C42.2206 8.24241 42.3591 8.85775 42.3289 9.47653C42.2988 10.0953 42.1011 10.6943 41.757 11.2094L41.6419 11.3787C40.7785 12.6652 39.729 13.4507 38.7133 14.2125C38.4695 14.3919 38.2292 14.5747 37.9854 14.7643C37.6694 15.0081 37.3579 15.2586 37.051 15.5159C38.7438 15.5159 40.5314 15.3128 41.0223 14.5273C41.5132 13.7419 40.721 13.4812 40.721 13.4812C40.721 13.4812 43.7206 13.1426 44.1337 11.917C44.5467 10.6914 42.881 10.6406 42.881 10.6406C42.881 10.6406 46.3106 9.2593 46.4359 7.71546C46.5612 6.17161 44.4418 6.36459 44.4418 6.36459Z" fill="#921C1D"/>
<path d="M12.6378 28.2179C11.2327 28.2179 10.0918 29.7617 10.0918 31.6644C10.0918 33.5671 11.2327 35.1076 12.6378 35.1076C14.0428 35.1076 15.1872 33.5638 15.1872 31.6644C15.1872 29.7651 14.0564 28.2179 12.6378 28.2179Z" fill="#921C1D"/>
<path d="M37.1817 23.8782C33.945 23.8782 31.8324 24.772 30.4951 25.7403C29.9073 24.8602 29.2507 24.0281 28.5314 23.2518C28.7785 22.8591 29.0325 22.4664 29.2898 22.0872C29.7265 21.4338 30.1937 20.8006 30.661 20.1743C31.1282 19.548 31.636 18.9589 32.1269 18.363L32.9022 17.503C33.1562 17.2153 33.4372 16.9478 33.6945 16.6702C34.7495 15.5756 35.8808 14.5574 37.0801 13.6231C38.265 12.6853 39.511 11.9303 40.4352 10.5761L40.5436 10.4102C40.7686 10.0809 40.889 9.69147 40.889 9.29269C40.889 8.89392 40.7687 8.50443 40.5437 8.17518C40.3187 7.84593 39.9995 7.59227 39.628 7.44738C39.2565 7.30249 38.8499 7.27312 38.4614 7.36312C36.6637 7.76939 35.2214 8.88326 34.0059 10.1461C33.3593 10.742 32.7973 11.4191 32.2116 12.0657C31.9306 12.4043 31.6732 12.7429 31.4024 13.0814L31.0029 13.596L30.6305 14.131C29.6347 15.5391 28.7754 17.039 28.0642 18.6101C27.7019 19.3855 27.3871 20.1845 27.1094 20.9801C27.0248 21.2238 26.9469 21.471 26.8724 21.7148C26.0062 21.0745 24.9594 20.725 23.8822 20.7165C22.805 20.708 21.7528 21.0409 20.8765 21.6674C20.7817 21.3423 20.6801 21.0173 20.5718 20.6923C20.2671 19.8357 19.9387 18.9826 19.5561 18.1565C18.7977 16.4832 17.8817 14.8859 16.8205 13.3861L16.4278 12.858L16.0215 12.3129C15.7338 11.9506 15.4561 11.5748 15.1582 11.2193C14.5352 10.5422 13.936 9.81092 13.2487 9.18797C11.952 7.83372 10.4183 6.65891 8.50884 6.22555C8.09661 6.13227 7.66586 6.16498 7.27245 6.31945C6.87903 6.47392 6.5411 6.74302 6.30246 7.09185C6.06382 7.44069 5.93548 7.85318 5.93409 8.27583C5.9327 8.69848 6.05831 9.1118 6.29465 9.4622L6.40976 9.63148C7.39159 11.0941 8.71875 11.8931 9.98159 12.8918C11.2596 13.8792 12.4656 14.9563 13.5907 16.1149C13.8683 16.4129 14.1662 16.6973 14.4371 17.002L15.2632 17.9195C15.7845 18.556 16.3195 19.1891 16.8239 19.8493C17.3284 20.5095 17.8193 21.2035 18.2865 21.8807C18.5912 22.3343 18.8959 22.8049 19.1837 23.2721C18.7599 23.7251 18.3599 24.1997 17.9852 24.6941C16.693 23.4087 14.9494 22.6797 13.1268 22.6627C8.88803 22.6627 5.44824 26.6984 5.44824 31.6786C5.44824 36.3542 8.4953 40.1968 12.3617 40.6471C12.2364 42.0217 12.1653 43.4809 12.1653 45.0484C12.1653 45.0484 17.9683 49.4497 25.9312 49.4497C33.8942 49.4497 35.5803 45.0484 35.5803 45.0484C35.5794 43.1824 35.4664 41.318 35.2417 39.4656C36.3691 39.5197 37.1952 39.4656 37.1952 39.4656C40.3777 39.4656 42.9507 35.9784 42.9507 31.6786C42.9507 27.3789 40.3641 23.8782 37.1817 23.8782ZM12.6359 38.1113C9.78184 38.1113 7.46946 35.2234 7.46946 31.6786C7.46946 28.1339 9.79199 25.2087 12.6359 25.2087C15.4798 25.2087 17.8058 28.0966 17.8058 31.6617C17.8058 35.2268 15.5035 38.1113 12.6359 38.1113ZM31.7376 39.127C31.4498 41.2227 30.0888 42.384 27.5902 42.384C25.0916 42.384 23.7272 41.2227 23.4394 39.127C23.4146 38.9581 23.4298 38.7857 23.4838 38.6237C23.5378 38.4617 23.6291 38.3147 23.7503 38.1945C23.8715 38.0742 24.0193 37.9842 24.1817 37.9315C24.3441 37.8788 24.5166 37.865 24.6853 37.8912C26.6079 38.2072 28.5691 38.2072 30.4917 37.8912C30.6615 37.8631 30.8355 37.8756 30.9996 37.9276C31.1636 37.9796 31.313 38.0698 31.4355 38.1907C31.5581 38.3115 31.6502 38.4597 31.7045 38.623C31.7587 38.7864 31.7736 38.9602 31.7477 39.1304L31.7376 39.127ZM37.1376 37.3665C36.2381 37.3473 35.3801 36.9837 34.7406 36.3508C34.3435 34.3413 33.7586 32.3735 32.9936 30.4734C33.3931 27.8732 35.0961 25.9231 37.1376 25.9231C39.4771 25.9231 41.3697 28.4826 41.3697 31.6414C41.3697 34.8002 39.4771 37.3665 37.1376 37.3665Z" fill="#921C1D"/>
<path d="M75.3296 31.4733C73.2779 28.7648 69.8381 27.3361 66.8384 27.3361C64.0555 27.3361 62.9585 28.4703 62.9585 29.5334C62.9585 34.2529 79.6462 29.7534 79.6462 41.0614C79.6462 47.3553 73.4269 50.2026 67.8609 50.2026C61.4925 50.2026 56.9558 47.8597 53.3027 43.9053L58.134 38.6001C60.8053 41.8943 64.025 43.4652 68.2333 43.4652C70.1022 43.4652 71.8221 42.954 71.8221 41.3086C71.8221 37.2797 55.0599 40.8684 55.0599 29.9261C55.0599 23.5916 60.6597 20.7375 66.7335 20.7375C71.8119 20.7375 76.9445 22.6402 80.1676 26.3373L75.3296 31.4733Z" fill="#921C1D"/>
<path d="M116.902 49.4143H109.007V35.6518C109.007 34.4804 107.991 33.959 106.846 33.959C106.035 33.9702 105.236 34.1573 104.504 34.5075V49.4042H96.5881V35.6518C96.5881 34.4804 95.525 33.959 94.3908 33.959C93.5965 33.9789 92.8135 34.1525 92.0852 34.4702V49.4042H84.2272V33.1532L82.9102 28.1763H90.8867L92.0953 33.4816H92.1868C92.4407 29.7134 95.1153 27.5534 98.2606 27.5534C101.666 27.5534 104.226 29.5848 104.483 33.6272H104.592C105.069 29.5645 107.639 27.5534 110.686 27.5534C114.071 27.5534 116.946 29.7134 116.946 33.7017L116.902 49.4143Z" fill="#921C1D"/>
<path d="M125.642 25.9494C124.756 25.9494 123.89 25.6869 123.153 25.1951C122.416 24.7033 121.842 24.0042 121.502 23.1861C121.162 22.368 121.072 21.4676 121.244 20.5985C121.416 19.7295 121.841 18.9307 122.466 18.3032C123.091 17.6756 123.888 17.2474 124.757 17.0725C125.625 16.8976 126.526 16.984 127.345 17.3207C128.165 17.6573 128.866 18.2292 129.361 18.9642C129.855 19.6991 130.121 20.5641 130.124 21.4499C130.124 22.6403 129.653 23.7822 128.812 24.6256C127.972 25.4689 126.832 25.9449 125.642 25.9494ZM129.593 49.4117H121.687V28.1839H129.593V49.4117Z" fill="#921C1D"/>
<path d="M149.081 33.233H143.664V42.601C143.664 43.8469 144.68 44.1753 146.007 44.1753C146.78 44.1701 147.552 44.0964 148.313 43.9552V49.4095C146.747 49.9988 145.082 50.276 143.41 50.2254C139.236 50.2254 135.759 48.3565 135.759 42.8684V33.233H132.83V28.1816H135.759V24.0444L143.664 19.6905V28.1816H149.081V33.233Z" fill="#921C1D"/>
<path d="M174.187 49.4067H166.282V36.003C166.282 34.5743 165.002 33.9716 163.502 33.9716C162.521 33.986 161.552 34.1847 160.645 34.5573V49.383H152.739V18.3978H160.645V33.6974H160.756C161.562 29.3435 164.379 27.5491 167.382 27.5491C170.768 27.5491 174.187 29.7091 174.187 33.6974V49.4067Z" fill="#921C1D"/>
<path d="M182.9 25.9494C182.013 25.9527 181.146 25.6931 180.407 25.2033C179.668 24.7136 179.09 24.0156 178.748 23.1979C178.406 22.3801 178.314 21.4791 178.483 20.6089C178.653 19.7388 179.077 18.9384 179.701 18.3092C180.326 17.6799 181.123 17.25 181.992 17.0737C182.861 16.8975 183.762 16.9829 184.583 17.319C185.403 17.6552 186.105 18.2271 186.601 18.9624C187.096 19.6977 187.362 20.5633 187.365 21.4499C187.366 22.6376 186.897 23.7775 186.061 24.6206C185.224 25.4636 184.088 25.9413 182.9 25.9494ZM186.854 49.4117H178.949V28.1839H186.854V49.4117Z" fill="#921C1D"/>
<path d="M195.537 25.9494C194.65 25.9527 193.782 25.6931 193.043 25.2033C192.304 24.7136 191.727 24.0156 191.385 23.1979C191.042 22.3801 190.95 21.4791 191.12 20.6089C191.29 19.7388 191.714 18.9384 192.338 18.3092C192.963 17.6799 193.76 17.25 194.629 17.0737C195.497 16.8975 196.399 16.9829 197.219 17.319C198.04 17.6552 198.742 18.2271 199.237 18.9624C199.733 19.6977 199.999 20.5633 200.002 21.4499C200.002 22.6374 199.533 23.7767 198.696 24.6196C197.86 25.4624 196.724 25.9404 195.537 25.9494ZM199.491 49.4117H191.582V28.1839H199.491V49.4117Z" fill="#921C1D"/>
</svg>
