<svg width="36" height="37" viewBox="0 0 36 37" fill="none" xmlns="http://www.w3.org/2000/svg">
<mask id="path-1-inside-1_576_757" fill="white">
<path fill-rule="evenodd" clip-rule="evenodd" d="M18 36.1011C27.9411 36.1011 36 28.0422 36 18.1011C36 8.15995 27.9411 0.101074 18 0.101074C8.05887 0.101074 0 8.15995 0 18.1011C0 28.0422 8.05887 36.1011 18 36.1011ZM7.22608 18.1295C10.3518 16.8523 21.6652 12.1663 24.3035 11.0735C24.3035 11.0735 26.1445 10.3575 25.9909 12.0966C25.9541 12.6139 25.7302 14.066 25.4545 15.8545C25.3487 16.5407 25.2353 17.2763 25.1219 18.0277L23.8436 26.0551C23.5203 28.3807 21.3958 27.2801 20.3156 26.5153C20.2712 26.4821 20.0655 26.3477 19.7571 26.1462C18.6439 25.4189 16.1922 23.817 15.1514 22.9361C14.7933 22.6292 14.3842 22.0156 15.2023 21.3C17.043 19.6126 19.2418 17.5165 20.571 16.187C21.1848 15.5732 21.7984 14.1415 19.2418 15.8801L12.0324 20.7376C12.0324 20.7376 11.2143 21.2488 9.68057 20.7885C8.14655 20.3283 6.35707 19.7147 6.35707 19.7147C6.35707 19.7147 5.12969 18.9476 7.22608 18.1295Z"/>
</mask>
<path fill-rule="evenodd" clip-rule="evenodd" d="M18 36.1011C27.9411 36.1011 36 28.0422 36 18.1011C36 8.15995 27.9411 0.101074 18 0.101074C8.05887 0.101074 0 8.15995 0 18.1011C0 28.0422 8.05887 36.1011 18 36.1011ZM7.22608 18.1295C10.3518 16.8523 21.6652 12.1663 24.3035 11.0735C24.3035 11.0735 26.1445 10.3575 25.9909 12.0966C25.9541 12.6139 25.7302 14.066 25.4545 15.8545C25.3487 16.5407 25.2353 17.2763 25.1219 18.0277L23.8436 26.0551C23.5203 28.3807 21.3958 27.2801 20.3156 26.5153C20.2712 26.4821 20.0655 26.3477 19.7571 26.1462C18.6439 25.4189 16.1922 23.817 15.1514 22.9361C14.7933 22.6292 14.3842 22.0156 15.2023 21.3C17.043 19.6126 19.2418 17.5165 20.571 16.187C21.1848 15.5732 21.7984 14.1415 19.2418 15.8801L12.0324 20.7376C12.0324 20.7376 11.2143 21.2488 9.68057 20.7885C8.14655 20.3283 6.35707 19.7147 6.35707 19.7147C6.35707 19.7147 5.12969 18.9476 7.22608 18.1295Z" fill="#921D1D"/>
<path d="M24.3035 11.0735L23.9411 10.1415L23.9309 10.1454L23.9209 10.1496L24.3035 11.0735ZM7.22608 18.1295L7.58961 19.0611L7.597 19.0582L7.60434 19.0552L7.22608 18.1295ZM25.9909 12.0966L24.9948 12.0086L24.994 12.0171L24.9934 12.0256L25.9909 12.0966ZM25.4545 15.8545L24.4662 15.7022V15.7022L25.4545 15.8545ZM25.1219 18.0277L26.1095 18.1849L26.1107 18.1769L25.1219 18.0277ZM23.8436 26.0551L22.856 25.8978L22.8545 25.9076L22.8531 25.9174L23.8436 26.0551ZM20.3156 26.5153L19.7157 27.3155L19.7266 27.3236L19.7378 27.3315L20.3156 26.5153ZM19.7571 26.1462L19.2101 26.9833L19.7571 26.1462ZM15.1514 22.9361L14.5006 23.6954L14.5054 23.6994L15.1514 22.9361ZM15.2023 21.3L15.8608 22.0526L15.8695 22.045L15.8781 22.0371L15.2023 21.3ZM20.571 16.187L19.8639 15.4799L19.8638 15.48L20.571 16.187ZM19.2418 15.8801L19.8006 16.7094L19.8041 16.707L19.2418 15.8801ZM12.0324 20.7376L12.5623 21.5857L12.5769 21.5765L12.5912 21.5669L12.0324 20.7376ZM9.68057 20.7885L9.96798 19.8307L9.96794 19.8307L9.68057 20.7885ZM6.35707 19.7147L5.82706 20.5627L5.92428 20.6235L6.03274 20.6607L6.35707 19.7147ZM35 18.1011C35 27.4899 27.3888 35.1011 18 35.1011V37.1011C28.4934 37.1011 37 28.5945 37 18.1011H35ZM18 1.10107C27.3888 1.10107 35 8.71223 35 18.1011H37C37 7.60766 28.4934 -0.898926 18 -0.898926V1.10107ZM1 18.1011C1 8.71223 8.61116 1.10107 18 1.10107V-0.898926C7.50659 -0.898926 -1 7.60766 -1 18.1011H1ZM18 35.1011C8.61116 35.1011 1 27.4899 1 18.1011H-1C-1 28.5945 7.50659 37.1011 18 37.1011V35.1011ZM23.9209 10.1496C21.2808 11.2431 9.97062 15.9278 6.84781 17.2038L7.60434 19.0552C10.7329 17.7768 22.0496 13.0895 24.6862 11.9974L23.9209 10.1496ZM26.987 12.1846C27.0393 11.5928 26.9386 11.0074 26.5536 10.555C26.1711 10.1054 25.662 9.96891 25.2916 9.93666C24.9225 9.90453 24.5811 9.9634 24.3603 10.0152C24.2438 10.0426 24.1458 10.0716 24.0747 10.0946C24.0389 10.1062 24.0093 10.1164 23.9868 10.1245C23.9755 10.1285 23.966 10.132 23.9584 10.1349C23.9546 10.1363 23.9512 10.1376 23.9483 10.1387C23.9469 10.1393 23.9455 10.1398 23.9443 10.1402C23.9437 10.1405 23.9432 10.1407 23.9426 10.1409C23.9424 10.141 23.942 10.1411 23.9418 10.1412C23.9415 10.1413 23.9411 10.1415 24.3035 11.0735C24.666 12.0055 24.6657 12.0056 24.6653 12.0058C24.6652 12.0058 24.6649 12.0059 24.6646 12.006C24.6642 12.0062 24.6638 12.0063 24.6634 12.0065C24.6627 12.0068 24.662 12.007 24.6615 12.0072C24.6603 12.0077 24.6596 12.0079 24.6593 12.0081C24.6586 12.0083 24.6594 12.008 24.6616 12.0072C24.666 12.0056 24.6758 12.0022 24.69 11.9976C24.719 11.9882 24.7636 11.9749 24.8173 11.9623C24.9368 11.9343 25.0461 11.9229 25.1181 11.9291C25.1887 11.9353 25.111 11.9458 25.0305 11.8511C24.9475 11.7536 25.0193 11.7309 24.9948 12.0086L26.987 12.1846ZM26.4428 16.0069C26.7133 14.2522 26.9478 12.7383 26.9884 12.1676L24.9934 12.0256C24.9604 12.4894 24.7471 13.8798 24.4662 15.7022L26.4428 16.0069ZM26.1107 18.1769C26.2238 17.4274 26.337 16.6932 26.4428 16.0069L24.4662 15.7022C24.3604 16.3881 24.2468 17.1253 24.1331 17.8784L26.1107 18.1769ZM24.8311 26.2124L26.1094 18.1849L24.1343 17.8704L22.856 25.8978L24.8311 26.2124ZM19.7378 27.3315C20.2954 27.7263 21.2745 28.3271 22.2509 28.4377C22.7716 28.4967 23.4012 28.4271 23.9374 27.9926C24.4657 27.5645 24.7331 26.9194 24.8341 26.1928L22.8531 25.9174C22.8233 26.1316 22.7782 26.2652 22.741 26.3432C22.7056 26.4174 22.6793 26.4379 22.6783 26.4387C22.6782 26.4388 22.6746 26.4434 22.6518 26.4485C22.624 26.4547 22.5682 26.4609 22.476 26.4504C22.0392 26.401 21.4159 26.0691 20.8934 25.6992L19.7378 27.3315ZM19.2101 26.9833C19.365 27.0845 19.4916 27.1672 19.5851 27.2289C19.6319 27.2597 19.6682 27.2838 19.6945 27.3015C19.7277 27.3238 19.7281 27.3247 19.7157 27.3155L20.9154 25.7152C20.8368 25.6563 20.5849 25.4925 20.304 25.309L19.2101 26.9833ZM14.5054 23.6994C15.606 24.6309 18.1256 26.2747 19.2101 26.9833L20.304 25.309C19.1623 24.563 16.7784 23.0031 15.7974 22.1728L14.5054 23.6994ZM14.5439 20.5473C13.9539 21.0634 13.6349 21.7166 13.7482 22.4285C13.8473 23.0507 14.2453 23.4766 14.5006 23.6954L15.8021 22.1768C15.7629 22.1432 15.7355 22.1119 15.7206 22.09C15.7062 22.0687 15.7174 22.077 15.7234 22.1141C15.7264 22.1335 15.7271 22.1554 15.7243 22.1772C15.7216 22.1989 15.7165 22.2119 15.7154 22.2143C15.7139 22.2178 15.7383 22.1597 15.8608 22.0526L14.5439 20.5473ZM19.8638 15.48C18.5471 16.7969 16.3592 18.8828 14.5266 20.5628L15.8781 22.0371C17.7267 20.3424 19.9364 18.2361 21.2782 16.894L19.8638 15.48ZM19.8041 16.707C20.4255 16.2844 20.7772 16.1098 20.9399 16.0538C21.0306 16.0226 20.9685 16.0618 20.8234 16.0436C20.7383 16.0329 20.6062 15.9998 20.4698 15.9045C20.3269 15.8047 20.2274 15.6701 20.1706 15.5321C20.1178 15.4039 20.1104 15.295 20.1111 15.2336C20.1119 15.1713 20.1213 15.1304 20.1246 15.1175C20.1303 15.0948 20.1293 15.1095 20.1009 15.1623C20.0445 15.2674 19.9502 15.3936 19.8639 15.4799L21.2781 16.8941C21.4987 16.6735 21.7114 16.3906 21.8627 16.1089C21.9382 15.9684 22.0163 15.7953 22.064 15.606C22.1049 15.4437 22.1631 15.1182 22.02 14.7707C21.8363 14.3245 21.4398 14.1052 21.072 14.0591C20.7707 14.0213 20.4906 14.0933 20.2888 14.1627C19.8667 14.3081 19.3364 14.6064 18.6795 15.0532L19.8041 16.707ZM12.5912 21.5669L19.8005 16.7094L18.683 15.0508L11.4736 19.9083L12.5912 21.5669ZM9.39316 21.7463C10.3106 22.0217 11.0569 22.0177 11.6062 21.9203C11.8782 21.8721 12.0955 21.8021 12.2557 21.7373C12.3357 21.7049 12.4014 21.6738 12.4525 21.6475C12.4781 21.6343 12.5 21.6223 12.5183 21.6118C12.5275 21.6066 12.5357 21.6018 12.5431 21.5974C12.5467 21.5952 12.5502 21.5932 12.5534 21.5912C12.555 21.5902 12.5565 21.5893 12.558 21.5883C12.5588 21.5879 12.5595 21.5874 12.5602 21.587C12.5606 21.5868 12.5611 21.5864 12.5613 21.5863C12.5618 21.586 12.5623 21.5857 12.0324 20.7376C11.5025 19.8895 11.503 19.8892 11.5035 19.8889C11.5037 19.8888 11.5042 19.8885 11.5045 19.8883C11.5052 19.8879 11.5059 19.8875 11.5065 19.8871C11.5078 19.8863 11.5091 19.8855 11.5103 19.8848C11.5127 19.8833 11.5149 19.8819 11.517 19.8807C11.5211 19.8782 11.5246 19.8762 11.5274 19.8746C11.5329 19.8714 11.5358 19.87 11.536 19.8699C11.5364 19.8697 11.5262 19.8749 11.5055 19.8833C11.4644 19.8999 11.3813 19.929 11.2571 19.951C11.014 19.9941 10.5843 20.0157 9.96798 19.8307L9.39316 21.7463ZM6.35707 19.7147C6.03274 20.6607 6.03276 20.6607 6.03279 20.6607C6.03281 20.6607 6.03284 20.6607 6.03288 20.6607C6.03295 20.6608 6.03306 20.6608 6.03319 20.6608C6.03344 20.6609 6.03381 20.6611 6.03429 20.6612C6.03523 20.6615 6.03661 20.662 6.03841 20.6626C6.04201 20.6639 6.0473 20.6657 6.05422 20.668C6.06805 20.6728 6.08838 20.6797 6.11472 20.6887C6.1674 20.7066 6.24411 20.7326 6.34086 20.7653C6.53431 20.8306 6.8081 20.9224 7.13017 21.0287C7.77299 21.2408 8.61362 21.5125 9.39321 21.7464L9.96794 19.8307C9.2135 19.6044 8.39238 19.3391 7.75695 19.1294C7.4399 19.0248 7.17045 18.9344 6.98044 18.8703C6.88545 18.8383 6.81038 18.8128 6.7592 18.7953C6.73361 18.7866 6.714 18.7799 6.70087 18.7755C6.6943 18.7732 6.68936 18.7715 6.68609 18.7704C6.68446 18.7698 6.68325 18.7694 6.68247 18.7692C6.68207 18.769 6.68179 18.7689 6.68161 18.7689C6.68152 18.7688 6.68146 18.7688 6.68143 18.7688C6.68141 18.7688 6.68141 18.7688 6.6814 18.7688C6.6814 18.7688 6.68141 18.7688 6.35707 19.7147ZM6.86255 17.1979C6.27808 17.426 5.80884 17.6924 5.48498 18.0293C5.12928 18.3993 4.93959 18.8725 5.01684 19.3795C5.08418 19.8216 5.3323 20.1261 5.48089 20.279C5.5633 20.3638 5.64151 20.429 5.70028 20.474C5.73022 20.4969 5.75661 20.5158 5.77793 20.5304C5.78864 20.5378 5.79819 20.5441 5.8064 20.5495C5.81051 20.5522 5.8143 20.5546 5.81775 20.5568C5.81947 20.5579 5.82111 20.559 5.82266 20.56C5.82344 20.5605 5.82419 20.5609 5.82493 20.5614C5.82529 20.5616 5.82583 20.562 5.82601 20.5621C5.82654 20.5624 5.82706 20.5627 6.35707 19.7147C6.88709 18.8668 6.8876 18.8671 6.88811 18.8674C6.88827 18.8675 6.88878 18.8678 6.88911 18.868C6.88977 18.8684 6.89041 18.8688 6.89104 18.8692C6.89229 18.87 6.89349 18.8708 6.89463 18.8715C6.89692 18.873 6.89898 18.8743 6.90083 18.8755C6.90453 18.8779 6.90744 18.8799 6.90967 18.8814C6.91404 18.8844 6.9161 18.886 6.91658 18.8864C6.91701 18.8867 6.91659 18.8864 6.9158 18.8857C6.91495 18.885 6.91472 18.8847 6.91521 18.8852C6.91564 18.8856 6.91803 18.8881 6.92186 18.893C6.92565 18.8978 6.93225 18.9067 6.94015 18.9201C6.95532 18.9457 6.982 18.9994 6.99402 19.0783C7.02647 19.2913 6.92301 19.4193 6.92678 19.4154C6.9624 19.3783 7.12589 19.2421 7.58961 19.0611L6.86255 17.1979Z" fill="#921D1D" fill-opacity="0.5" mask="url(#path-1-inside-1_576_757)"/>
</svg>
