<svg width="40" height="34" viewBox="0 0 40 34" fill="none" xmlns="http://www.w3.org/2000/svg">
<path d="M35.905 8.9414C35.9283 9.29306 35.9283 9.6464 35.9283 10.0014C35.9283 20.8464 27.6717 33.3514 12.5783 33.3514V33.3447C8.12 33.3514 3.75333 32.0747 0 29.6664C0.648333 29.7447 1.3 29.7831 1.95333 29.7847C5.65 29.7881 9.24 28.5481 12.145 26.2647C8.63333 26.1981 5.55333 23.9081 4.47833 20.5647C5.70833 20.8014 6.975 20.7531 8.18333 20.4247C4.35333 19.6514 1.6 16.2864 1.6 12.3797C1.6 12.3447 1.6 12.3097 1.6 12.2764C2.74167 12.9131 4.01833 13.2647 5.325 13.3031C1.71833 10.8947 0.605 6.09806 2.78333 2.34806C6.95 7.47473 13.0983 10.5914 19.6967 10.9231C19.035 8.07306 19.94 5.0864 22.07 3.0814C25.375 -0.0269353 30.5733 0.133065 33.6817 3.43806C35.52 3.0764 37.2817 2.4014 38.8933 1.4464C38.28 3.3464 36.9983 4.95973 35.285 5.9864C36.9133 5.7914 38.5017 5.3564 40 4.69306C38.8983 6.3414 37.5117 7.77973 35.905 8.9414Z" fill="#921D1D"/>
</svg>
